  0
SECTION
  2
HEADER
  9
$ACADVER
  1
AC1015
  9
$ACADMAINTVER
 70
     6
  9
$DWGCODEPAGE
  3
ANSI_1252
  9
$INSBASE
 10
0.0
 20
0.0
 30
0.0
  9
$EXTMIN
 10
-552.9010323328
 20
-579.6876416131
 30
0.0
  9
$EXTMAX
 10
810.6422807418
 20
381.8713004366
 30
0.0
  9
$LIMMIN
 10
0.0
 20
0.0
  9
$LIMMAX
 10
420.0
 20
297.0
  9
$ORTHOMODE
 70
     0
  9
$REGENMODE
 70
     1
  9
$FILLMODE
 70
     1
  9
$QTEXTMODE
 70
     0
  9
$MIRRTEXT
 70
     1
  9
$LTSCALE
 40
1.0
  9
$ATTMODE
 70
     1
  9
$TEXTSIZE
 40
3.5
  9
$TRACEWID
 40
1.0
  9
$TEXTSTYLE
  7
Standard
  9
$CLAYER
  8
0
  9
$CELTYPE
  6
ByLayer
  9
$CECOLOR
 62
   256
  9
$CELTSCALE
 40
1.0
  9
$DISPSILH
 70
     0
  9
$DIMSCALE
 40
1.0
  9
$DIMASZ
 40
3.302
  9
$DIMEXO
 40
1.0
  9
$DIMDLI
 40
3.75
  9
$DIMRND
 40
0.0
  9
$DIMDLE
 40
0.0
  9
$DIMEXE
 40
1.0
  9
$DIMTP
 40
0.0
  9
$DIMTM
 40
0.0
  9
$DIMTXT
 40
3.5
  9
$DIMCEN
 40
2.5
  9
$DIMTSZ
 40
0.0
  9
$DIMTOL
 70
     0
  9
$DIMLIM
 70
     0
  9
$DIMTIH
 70
     1
  9
$DIMTOH
 70
     1
  9
$DIMSE1
 70
     0
  9
$DIMSE2
 70
     0
  9
$DIMTAD
 70
     1
  9
$DIMZIN
 70
     0
  9
$DIMBLK
  1

  9
$DIMASO
 70
     1
  9
$DIMSHO
 70
     1
  9
$DIMPOST
  1

  9
$DIMAPOST
  1

  9
$DIMALT
 70
     0
  9
$DIMALTD
 70
     3
  9
$DIMALTF
 40
0.0393700787
  9
$DIMLFAC
 40
1.0
  9
$DIMTOFL
 70
     1
  9
$DIMTVP
 40
0.0
  9
$DIMTIX
 70
     0
  9
$DIMSOXD
 70
     0
  9
$DIMSAH
 70
     0
  9
$DIMBLK1
  1

  9
$DIMBLK2
  1

  9
$DIMSTYLE
  2
ISO-25
  9
$DIMCLRD
 70
     0
  9
$DIMCLRE
 70
     0
  9
$DIMCLRT
 70
     0
  9
$DIMTFAC
 40
1.0
  9
$DIMGAP
 40
1.524
  9
$DIMJUST
 70
     0
  9
$DIMSD1
 70
     0
  9
$DIMSD2
 70
     0
  9
$DIMTOLJ
 70
     0
  9
$DIMTZIN
 70
     0
  9
$DIMALTZ
 70
     0
  9
$DIMALTTZ
 70
     0
  9
$DIMUPT
 70
     0
  9
$DIMDEC
 70
     2
  9
$DIMTDEC
 70
     2
  9
$DIMALTU
 70
     2
  9
$DIMALTTD
 70
     3
  9
$DIMTXSTY
  7
Standard
  9
$DIMAUNIT
 70
     0
  9
$DIMADEC
 70
     2
  9
$DIMALTRND
 40
0.0
  9
$DIMAZIN
 70
     0
  9
$DIMDSEP
 70
    44
  9
$DIMATFIT
 70
     3
  9
$DIMFRAC
 70
     0
  9
$DIMLDRBLK
  1

  9
$DIMLUNIT
 70
     2
  9
$DIMLWD
 70
    -2
  9
$DIMLWE
 70
    -2
  9
$DIMTMOVE
 70
     0
  9
$LUNITS
 70
     2
  9
$LUPREC
 70
     2
  9
$SKETCHINC
 40
1.0
  9
$FILLETRAD
 40
10.0
  9
$AUNITS
 70
     0
  9
$AUPREC
 70
     2
  9
$MENU
  1
.
  9
$ELEVATION
 40
0.0
  9
$PELEVATION
 40
0.0
  9
$THICKNESS
 40
0.0
  9
$LIMCHECK
 70
     0
  9
$CHAMFERA
 40
0.0
  9
$CHAMFERB
 40
0.0
  9
$CHAMFERC
 40
0.0
  9
$CHAMFERD
 40
0.0
  9
$SKPOLY
 70
     0
  9
$TDCREATE
 40
2458801.155405498
  9
$TDUCREATE
 40
2458801.488738831
  9
$TDUPDATE
 40
2458801.155524306
  9
$TDUUPDATE
 40
2458801.488857639
  9
$TDINDWG
 40
0.0000000116
  9
$TDUSRTIMER
 40
0.0000000116
  9
$USRTIMER
 70
     1
  9
$ANGBASE
 50
0.0
  9
$ANGDIR
 70
     0
  9
$PDMODE
 70
     0
  9
$PDSIZE
 40
-1.0
  9
$PLINEWID
 40
0.0
  9
$SPLFRAME
 70
     0
  9
$SPLINETYPE
 70
     6
  9
$SPLINESEGS
 70
     8
  9
$HANDSEED
  5
1AC
  9
$SURFTAB1
 70
     6
  9
$SURFTAB2
 70
     6
  9
$SURFTYPE
 70
     6
  9
$SURFU
 70
     6
  9
$SURFV
 70
     6
  9
$UCSBASE
  2

  9
$UCSNAME
  2

  9
$UCSORG
 10
0.0
 20
0.0
 30
0.0
  9
$UCSXDIR
 10
1.0
 20
0.0
 30
0.0
  9
$UCSYDIR
 10
0.0
 20
1.0
 30
0.0
  9
$UCSORTHOREF
  2

  9
$UCSORTHOVIEW
 70
     0
  9
$UCSORGTOP
 10
0.0
 20
0.0
 30
0.0
  9
$UCSORGBOTTOM
 10
0.0
 20
0.0
 30
0.0
  9
$UCSORGLEFT
 10
0.0
 20
0.0
 30
0.0
  9
$UCSORGRIGHT
 10
0.0
 20
0.0
 30
0.0
  9
$UCSORGFRONT
 10
0.0
 20
0.0
 30
0.0
  9
$UCSORGBACK
 10
0.0
 20
0.0
 30
0.0
  9
$PUCSBASE
  2

  9
$PUCSNAME
  2

  9
$PUCSORG
 10
0.0
 20
0.0
 30
0.0
  9
$PUCSXDIR
 10
1.0
 20
0.0
 30
0.0
  9
$PUCSYDIR
 10
0.0
 20
1.0
 30
0.0
  9
$PUCSORTHOREF
  2

  9
$PUCSORTHOVIEW
 70
     0
  9
$PUCSORGTOP
 10
0.0
 20
0.0
 30
0.0
  9
$PUCSORGBOTTOM
 10
0.0
 20
0.0
 30
0.0
  9
$PUCSORGLEFT
 10
0.0
 20
0.0
 30
0.0
  9
$PUCSORGRIGHT
 10
0.0
 20
0.0
 30
0.0
  9
$PUCSORGFRONT
 10
0.0
 20
0.0
 30
0.0
  9
$PUCSORGBACK
 10
0.0
 20
0.0
 30
0.0
  9
$USERI1
 70
     0
  9
$USERI2
 70
     0
  9
$USERI3
 70
     0
  9
$USERI4
 70
     0
  9
$USERI5
 70
     0
  9
$USERR1
 40
0.0
  9
$USERR2
 40
0.0
  9
$USERR3
 40
0.0
  9
$USERR4
 40
0.0
  9
$USERR5
 40
0.0
  9
$WORLDVIEW
 70
     1
  9
$SHADEDGE
 70
     3
  9
$SHADEDIF
 70
    70
  9
$TILEMODE
 70
     1
  9
$MAXACTVP
 70
    64
  9
$PINSBASE
 10
0.0
 20
0.0
 30
0.0
  9
$PLIMCHECK
 70
     0
  9
$PEXTMIN
 10
1.0000000000E+20
 20
1.0000000000E+20
 30
1.0000000000E+20
  9
$PEXTMAX
 10
-1.0000000000E+20
 20
-1.0000000000E+20
 30
-1.0000000000E+20
  9
$PLIMMIN
 10
0.0
 20
0.0
  9
$PLIMMAX
 10
420.0
 20
297.0
  9
$UNITMODE
 70
     0
  9
$VISRETAIN
 70
     1
  9
$PLINEGEN
 70
     0
  9
$PSLTSCALE
 70
     1
  9
$TREEDEPTH
 70
  3020
  9
$CMLSTYLE
  2
Standard
  9
$CMLJUST
 70
     0
  9
$CMLSCALE
 40
20.0
  9
$PROXYGRAPHICS
 70
     1
  9
$MEASUREMENT
 70
     1
  9
$CELWEIGHT
370
    -1
  9
$ENDCAPS
280
     0
  9
$JOINSTYLE
280
     0
  9
$LWDISPLAY
290
     1
  9
$INSUNITS
 70
     4
  9
$HYPERLINKBASE
  1

  9
$STYLESHEET
  1

  9
$XEDIT
290
     1
  9
$CEPSNTYPE
380
     0
  9
$PSTYLEMODE
290
     1
  9
$FINGERPRINTGUID
  2
{167836F7-D1F1-413F-9A71-024B1B70A21B}
  9
$VERSIONGUID
  2
{FAEB1C32-E019-11D5-929B-00C0DF256EC4}
  9
$EXTNAMES
290
     1
  9
$PSVPSCALE
 40
0.0
  9
$OLESTARTUP
290
     0
  0
ENDSEC
  0
SECTION
  2
CLASSES
  0
CLASS
  1
ACDBDICTIONARYWDFLT
  2
AcDbDictionaryWithDefault
  3
ObjectDBX Classes
 90
        0
280
     0
281
     0
  0
CLASS
  1
VISUALSTYLE
  2
AcDbVisualStyle
  3
ObjectDBX Classes
 90
     4095
280
     0
281
     0
  0
CLASS
  1
MATERIAL
  2
AcDbMaterial
  3
ObjectDBX Classes
 90
     1153
280
     0
281
     0
  0
CLASS
  1
SCALE
  2
AcDbScale
  3
ObjectDBX Classes
 90
     1153
280
     0
281
     0
  0
CLASS
  1
TABLESTYLE
  2
AcDbTableStyle
  3
ObjectDBX Classes
 90
     4095
280
     0
281
     0
  0
CLASS
  1
MLEADERSTYLE
  2
AcDbMLeaderStyle
  3
ACDB_MLEADERSTYLE_CLASS
 90
     4095
280
     0
281
     0
  0
CLASS
  1
SUN
  2
AcDbSun
  3
SCENEOE
 90
     1153
280
     0
281
     0
  0
CLASS
  1
ACDBPLACEHOLDER
  2
AcDbPlaceHolder
  3
ObjectDBX Classes
 90
        0
280
     0
281
     0
  0
CLASS
  1
LAYOUT
  2
AcDbLayout
  3
ObjectDBX Classes
 90
        0
280
     0
281
     0
  0
ENDSEC
  0
SECTION
  2
TABLES
  0
TABLE
  2
VPORT
  5
8
330
0
100
AcDbSymbolTable
 70
     1
  0
VPORT
  5
29
330
8
100
AcDbSymbolTableRecord
100
AcDbViewportTableRecord
  2
*Active
 70
     0
 10
0.0
 20
0.0
 11
1.0
 21
1.0
 12
128.8706242045
 22
-98.9081705882
 13
0.0
 23
0.0
 14
10.0
 24
10.0
 15
10.0
 25
10.0
 16
0.0
 26
0.0
 36
1.0
 17
0.0
 27
0.0
 37
0.0
 40
980.7901208907
 41
1.4180548414
 42
50.0
 43
0.0
 44
0.0
 50
0.0
 51
0.0
 71
     0
 72
   100
 73
     1
 74
     3
 75
     0
 76
     0
 77
     0
 78
     0
281
     0
 65
     1
110
0.0
120
0.0
130
0.0
111
1.0
121
0.0
131
0.0
112
0.0
122
1.0
132
0.0
 79
     0
146
0.0
  0
ENDTAB
  0
TABLE
  2
LTYPE
  5
5
330
0
100
AcDbSymbolTable
 70
     6
  0
LTYPE
  5
14
330
5
100
AcDbSymbolTableRecord
100
AcDbLinetypeTableRecord
  2
ByBlock
 70
     0
  3

 72
    65
 73
     0
 40
0.0
  0
LTYPE
  5
15
330
5
100
AcDbSymbolTableRecord
100
AcDbLinetypeTableRecord
  2
ByLayer
 70
     0
  3

 72
    65
 73
     0
 40
0.0
  0
LTYPE
  5
16
330
5
100
AcDbSymbolTableRecord
100
AcDbLinetypeTableRecord
  2
Continuous
 70
     0
  3
Solid line
 72
    65
 73
     0
 40
0.0
  0
LTYPE
  5
6E
330
5
100
AcDbSymbolTableRecord
100
AcDbLinetypeTableRecord
  2
HIDDEN
 70
     0
  3
Hidden __ __ __ __ __ __ __ __ __ __ __ __ __ __
 72
    65
 73
     2
 40
1.905
 49
1.27
 74
     0
 49
-0.635
 74
     0
  0
LTYPE
  5
6F
330
5
100
AcDbSymbolTableRecord
100
AcDbLinetypeTableRecord
  2
PHANTOM
 70
     0
  3
Phantom ______  __  __  ______  __  __  ______
 72
    65
 73
     6
 40
12.7
 49
6.35
 74
     0
 49
-1.27
 74
     0
 49
1.27
 74
     0
 49
-1.27
 74
     0
 49
1.27
 74
     0
 49
-1.27
 74
     0
  0
LTYPE
  5
70
330
5
100
AcDbSymbolTableRecord
100
AcDbLinetypeTableRecord
  2
CENTER
 70
     0
  3
Center ____ _ ____ _ ____ _ ____ _ ____ _ ____
 72
    65
 73
     4
 40
10.16
 49
6.35
 74
     0
 49
-1.27
 74
     0
 49
1.27
 74
     0
 49
-1.27
 74
     0
  0
LTYPE
  5
71
330
5
100
AcDbSymbolTableRecord
100
AcDbLinetypeTableRecord
  2
CENTERX2
 70
     0
  3
Center (2x) ________  __  ________  __  _____
 72
    65
 73
     4
 40
20.32
 49
12.7
 74
     0
 49
-2.54
 74
     0
 49
2.54
 74
     0
 49
-2.54
 74
     0
  0
LTYPE
  5
72
330
5
100
AcDbSymbolTableRecord
100
AcDbLinetypeTableRecord
  2
DOT2
 70
     0
  3
Dot (.5x) ........................................
 72
    65
 73
     2
 40
0.635
 49
0.0
 74
     0
 49
-0.635
 74
     0
  0
ENDTAB
  0
TABLE
  2
LAYER
  5
2
330
0
100
AcDbSymbolTable
 70
     1
  0
LAYER
  5
10
330
2
100
AcDbSymbolTableRecord
100
AcDbLayerTableRecord
  2
0
 70
     0
 62
     7
  6
Continuous
370
    -3
390
F
  0
ENDTAB
  0
TABLE
  2
STYLE
  5
3
330
0
100
AcDbSymbolTable
 70
     1
  0
STYLE
  5
11
330
3
100
AcDbSymbolTableRecord
100
AcDbTextStyleTableRecord
  2
Standard
 70
     0
 40
0.0
 41
1.0
 50
0.0
 71
     0
 42
3.5
  3
txt
  4

  0
ENDTAB
  0
TABLE
  2
VIEW
  5
6
330
0
100
AcDbSymbolTable
 70
     0
  0
ENDTAB
  0
TABLE
  2
UCS
  5
7
330
0
100
AcDbSymbolTable
 70
     0
  0
ENDTAB
  0
TABLE
  2
APPID
  5
9
330
0
100
AcDbSymbolTable
 70
     1
  0
APPID
  5
12
330
9
100
AcDbSymbolTableRecord
100
AcDbRegAppTableRecord
  2
ACAD
 70
     0
  0
ENDTAB
  0
TABLE
  2
DIMSTYLE
  5
A
330
0
100
AcDbSymbolTable
 70
     1
100
AcDbDimStyleTable
  0
DIMSTYLE
105
27
330
A
100
AcDbSymbolTableRecord
100
AcDbDimStyleTableRecord
  2
ISO-25
 70
     0
 41
2.5
 42
0.625
 43
3.75
 44
1.25
 73
     0
 74
     0
 77
     1
 78
     8
140
2.5
141
2.5
143
0.0393700787
147
0.625
171
     3
172
     1
178
     0
271
     2
272
     2
274
     3
278
    44
283
     0
284
     8
340
11
  0
ENDTAB
  0
TABLE
  2
BLOCK_RECORD
  5
1
330
0
100
AcDbSymbolTable
 70
     1
  0
BLOCK_RECORD
  5
1F
330
1
100
AcDbSymbolTableRecord
100
AcDbBlockTableRecord
  2
*Model_Space
340
22
  0
BLOCK_RECORD
  5
1B
330
1
100
AcDbSymbolTableRecord
100
AcDbBlockTableRecord
  2
*Paper_Space
340
1E
  0
BLOCK_RECORD
  5
23
330
1
100
AcDbSymbolTableRecord
100
AcDbBlockTableRecord
  2
*Paper_Space0
340
26
  0
ENDTAB
  0
ENDSEC
  0
SECTION
  2
BLOCKS
  0
BLOCK
  5
20
330
1F
100
AcDbEntity
  8
0
100
AcDbBlockBegin
  2
*Model_Space
 70
     0
 10
0.0
 20
0.0
 30
0.0
  3
*Model_Space
  1

  0
ENDBLK
  5
21
330
1F
100
AcDbEntity
  8
0
100
AcDbBlockEnd
  0
BLOCK
  5
1C
330
1B
100
AcDbEntity
 67
     1
  8
0
100
AcDbBlockBegin
  2
*Paper_Space
 70
     0
 10
0.0
 20
0.0
 30
0.0
  3
*Paper_Space
  1

  0
ENDBLK
  5
1D
330
1B
100
AcDbEntity
 67
     1
  8
0
100
AcDbBlockEnd
  0
BLOCK
  5
24
330
23
100
AcDbEntity
  8
0
100
AcDbBlockBegin
  2
*Paper_Space0
 70
     0
 10
0.0
 20
0.0
 30
0.0
  3
*Paper_Space0
  1

  0
ENDBLK
  5
25
330
23
100
AcDbEntity
  8
0
100
AcDbBlockEnd
  0
ENDSEC
  0
SECTION
  2
ENTITIES
  0
SPLINE
  5
76
330
1F
100
AcDbEntity
  8
0
  6
Continuous
 62
     7
370
    15
100
AcDbSpline
210
0.0
220
0.0
230
1.0
 70
     8
 71
     3
 72
    15
 73
    11
 74
     0
 42
0.000000001
 43
0.00000001
 40
0.0
 40
0.0
 40
0.0
 40
0.0
 40
0.1649327971161828
 40
0.3078394790464613
 40
0.4278165307485926
 40
0.5315199948121239
 40
0.6306960124243218
 40
0.7403683096647301
 40
0.8616672196776833
 40
1.0
 40
1.0
 40
1.0
 40
1.0
 10
-127.8849141992611
 20
-442.9713423831071
 30
0.0
 10
-126.8233883531071
 20
-442.9459377886893
 30
0.0
 10
-124.8420991905632
 20
-442.8985212817988
 30
0.0
 10
-122.1089044394465
 20
-442.5203015884385
 30
0.0
 10
-119.823718539195
 20
-441.896833083308
 30
0.0
 10
-117.9552512381175
 20
-440.9468583429542
 30
0.0
 10
-116.4342349049732
 20
-439.5963571689069
 30
0.0
 10
-115.2282321195283
 20
-437.8349415649407
 30
0.0
 10
-114.1159237610501
 20
-435.7236273379196
 30
0.0
 10
-113.6424769865092
 20
-434.1172111531573
 30
0.0
 10
-113.3902226928508
 20
-433.2613063254147
 30
0.0
  0
SPLINE
  5
7A
330
1F
100
AcDbEntity
  8
0
  6
Continuous
 62
     7
370
    15
100
AcDbSpline
210
0.0
220
0.0
230
1.0
 70
     8
 71
     3
 72
    25
 73
    21
 74
     0
 42
0.000000001
 43
0.00000001
 40
0.3398494188428868
 40
0.3398494188428868
 40
0.3398494188428868
 40
0.3398494188428868
 40
0.3559136610175191
 40
0.3856616518133633
 40
0.414749199690537
 40
0.4431464195504276
 40
0.4708023368995205
 40
0.4979338599618994
 40
0.5250846002546863
 40
0.5527939013930895
 40
0.5813194018988582
 40
0.610756748139819
 40
0.6410118023227689
 40
0.6723396616794217
 40
0.7045364789862643
 40
0.7380243101175957
 40
0.8051400021816537
 40
0.87067769921427
 40
0.9355129476305128
 40
1.0
 40
1.0
 40
1.0
 40
1.0
 10
14.37494851172846
 20
-410.0051618337476
 30
0.0
 10
14.02943993502538
 20
-410.6401622771374
 30
0.0
 10
13.02698670344278
 20
-412.4416163622707
 30
0.0
 10
11.28566359899241
 20
-415.3295667382914
 30
0.0
 10
9.058512111696393
 20
-418.5648102304306
 30
0.0
 10
6.720689357182952
 20
-421.6020674945713
 30
0.0
 10
4.29866868084583
 20
-424.4582443062205
 30
0.0
 10
1.75218448187997
 20
-427.1287724426438
 30
0.0
 10
-0.9762749925001923
 20
-429.6160173985989
 30
0.0
 10
-3.883159367340516
 20
-431.991860645609
 30
0.0
 10
-7.015310757413684
 20
-434.2438887275243
 30
0.0
 10
-10.36638887722519
 20
-436.3754012718823
 30
0.0
 10
-13.92381805021681
 20
-438.4082898318893
 30
0.0
 10
-17.68781032911637
 20
-440.3212806632757
 30
0.0
 10
-21.6822449655093
 20
-442.085869162173
 30
0.0
 10
-27.22031738207431
 20
-444.3345481368401
 30
0.0
 10
-34.34354970625486
 20
-446.6428664688675
 30
0.0
 10
-42.99807185402849
 20
-448.6944620873044
 30
0.0
 10
-51.69669478910843
 20
-449.9524760744384
 30
0.0
 10
-57.51830467572327
 20
-450.1019398924429
 30
0.0
 10
-60.42127237233797
 20
-450.1764705882352
 30
0.0
  0
SPLINE
  5
7E
330
1F
100
AcDbEntity
  8
0
  6
Continuous
 62
     7
370
    15
100
AcDbSpline
210
0.0
220
0.0
230
1.0
 70
     8
 71
     3
 72
    15
 73
    11
 74
     0
 42
0.000000001
 43
0.00000001
 40
0.0
 40
0.0
 40
0.0
 40
0.0
 40
0.0325338956340566
 40
0.0651378550134209
 40
0.0975137206641673
 40
0.129663254252819
 40
0.1621817824351873
 40
0.1946568415472795
 40
0.2274230371451477
 40
0.2561032387554096
 40
0.2561032387554096
 40
0.2561032387554096
 40
0.2561032387554096
 10
25.92768596099537
 20
-366.1072598510557
 30
0.0
 10
25.90230049948894
 20
-367.5711294228224
 30
0.0
 10
25.8514749073232
 20
-370.5020210995169
 30
0.0
 10
25.5568065560049
 20
-374.8837684332369
 30
0.0
 10
24.96283223972085
 20
-379.2155425772399
 30
0.0
 10
24.25684258654537
 20
-383.5268291182867
 30
0.0
 10
23.25421121162097
 20
-387.7845001697935
 30
0.0
 10
22.07697798099384
 20
-392.0243099726553
 30
0.0
 10
20.732081122177
 20
-396.0337752216512
 30
0.0
 10
19.72155179742013
 20
-398.6079929692203
 30
0.0
 10
19.23306927127909
 20
-399.802825376267
 30
0.0
  0
SPLINE
  5
7F
330
1F
100
AcDbEntity
  8
0
  6
Continuous
 62
     7
370
    15
100
AcDbSpline
210
0.0
220
0.0
230
1.0
 70
     8
 71
     3
 72
    23
 73
    19
 74
     0
 42
0.000000001
 43
0.00000001
 40
0.0
 40
0.0
 40
0.0
 40
0.0
 40
0.0746501362805214
 40
0.1451811198076413
 40
0.2122635239111103
 40
0.2764214670711153
 40
0.3378321289321726
 40
0.397360304765158
 40
0.455552264660289
 40
0.5134057334550239
 40
0.5706058021856996
 40
0.627490449919347
 40
0.6845088180291746
 40
0.7426295594757308
 40
0.8028450507793258
 40
0.8654835447864507
 40
0.9310062576427852
 40
1.0
 40
1.0
 40
1.0
 40
1.0
 10
-34.92187333387642
 20
-309.6764705882352
 30
0.0
 10
-32.57444336255233
 20
-309.7141085074891
 30
0.0
 10
-28.0091132923409
 20
-309.7873075066708
 30
0.0
 10
-21.3676826600393
 20
-310.5150507956387
 30
0.0
 10
-15.12012993717293
 20
-311.6443226551847
 30
0.0
 10
-9.27803351966794
 20
-313.2760449665813
 30
0.0
 10
-3.8385691915368
 20
-315.3649605444988
 30
0.0
 10
1.20518843110462
 20
-317.8928729857301
 30
0.0
 10
5.830270798261483
 20
-320.9285957621943
 30
0.0
 10
10.01795054178412
 20
-324.4255604769303
 30
0.0
 10
13.7940432904019
 20
-328.3107667647873
 30
0.0
 10
17.02541359492948
 20
-332.6246974390597
 30
0.0
 10
19.82930586047327
 20
-337.2623984394066
 30
0.0
 10
22.04345980629208
 20
-342.3256759064424
 30
0.0
 10
23.78387370461321
 20
-347.7501210147598
 30
0.0
 10
25.05621196686203
 20
-353.5426790668358
 30
0.0
 10
25.7817041065741
 20
-359.7091768707971
 30
0.0
 10
25.87819539701874
 20
-363.938190713542
 30
0.0
 10
25.92768596099537
 20
-366.1072598510557
 30
0.0
  0
SPLINE
  5
83
330
1F
100
AcDbEntity
  8
0
  6
Continuous
 62
     7
370
    15
100
AcDbSpline
210
0.0
220
0.0
230
1.0
 70
     8
 71
     3
 72
    15
 73
    11
 74
     0
 42
0.000000001
 43
0.00000001
 40
0.0
 40
0.0
 40
0.0
 40
0.0
 40
0.0838294178156044
 40
0.163438979626229
 40
0.247001140381793
 40
0.3397003940577052
 40
0.4530279142932019
 40
0.5992099022501689
 40
0.7798108316984055
 40
1.0
 40
1.0
 40
1.0
 40
1.0
 10
-82.5151225325943
 20
-322.3417350113122
 30
0.0
 10
-82.55002637207997
 20
-321.934234251532
 30
0.0
 10
-82.61807704043977
 20
-321.1397457520189
 30
0.0
 10
-83.0894878070364
 20
-320.0095186533027
 30
0.0
 10
-83.9228202818988
 20
-319.0652072479074
 30
0.0
 10
-85.08023864963398
 20
-318.2469939949636
 30
0.0
 10
-86.67572155389014
 20
-317.5884717229325
 30
0.0
 10
-88.784727143147
 20
-317.1916174684301
 30
0.0
 10
-91.42925528202173
 20
-316.9060989706107
 30
0.0
 10
-93.37799977719163
 20
-316.8902861585401
 30
0.0
 10
-94.44861612233791
 20
-316.8815987933634
 30
0.0
  0
SPLINE
  5
84
330
1F
100
AcDbEntity
  8
0
  6
Continuous
 62
     7
370
    15
100
AcDbSpline
210
0.0
220
0.0
230
1.0
 70
     8
 71
     3
 72
     9
 73
     5
 74
     0
 42
0.000000001
 43
0.00000001
 40
0.0
 40
0.0
 40
0.0
 40
0.0
 40
0.4953235722569527
 40
1.0
 40
1.0
 40
1.0
 40
1.0
 10
-82.7121377569533
 20
-324.5089024792609
 30
0.0
 10
-82.65817280195276
 20
-324.1530428957839
 30
0.0
 10
-82.54922390869757
 20
-323.4346042762459
 30
0.0
 10
-82.52656031440286
 20
-322.7082891397929
 30
0.0
 10
-82.5151225325943
 20
-322.3417350113122
 30
0.0
  0
SPLINE
  5
87
330
1F
100
AcDbEntity
  8
0
  6
Continuous
 62
     7
370
    15
100
AcDbSpline
210
0.0
220
0.0
230
1.0
 70
     8
 71
     3
 72
    23
 73
    19
 74
     0
 42
0.000000001
 43
0.00000001
 40
0.0
 40
0.0
 40
0.0
 40
0.0
 40
0.0676484224981771
 40
0.1325714192047218
 40
0.1956530470133894
 40
0.2574886221906594
 40
0.3184574754985817
 40
0.3791305983889362
 40
0.4402710311379585
 40
0.5024659633091261
 40
0.5645049783376267
 40
0.6252464745032691
 40
0.6851994428588041
 40
0.745385210400365
 40
0.8062283102691099
 40
0.868600956209217
 40
0.9329797592232015
 40
1.0
 40
1.0
 40
1.0
 40
1.0
 10
-309.392225897979
 20
-451.9777526395172
 30
0.0
 10
-311.4112860912542
 20
-451.9262206422064
 30
0.0
 10
-315.3680623973013
 20
-451.8252327733743
 30
0.0
 10
-321.1735967397412
 20
-451.1167185911893
 30
0.0
 10
-326.7196192849672
 20
-449.9148289291551
 30
0.0
 10
-331.9957459462336
 20
-448.1757131779835
 30
0.0
 10
-337.0405158596396
 20
-446.0238545225037
 30
0.0
 10
-341.7901632838959
 20
-443.3190025736312
 30
0.0
 10
-346.2845631911346
 20
-440.1507527295493
 30
0.0
 10
-350.4889058167048
 20
-436.5408832661337
 30
0.0
 10
-354.2994781175152
 20
-432.534766700305
 30
0.0
 10
-357.6511459742634
 20
-428.2183223716825
 30
0.0
 10
-360.4416794839563
 20
-423.5859810115141
 30
0.0
 10
-362.7788273797302
 20
-418.705000831685
 30
0.0
 10
-364.5370948053675
 20
-413.5102873034071
 30
0.0
 10
-365.8452654488428
 20
-408.0596174359391
 30
0.0
 10
-366.6112982365467
 20
-402.3141876779732
 30
0.0
 10
-366.7043434136704
 20
-398.3918880132426
 30
0.0
 10
-366.7518012184919
 20
-396.3913143382351
 30
0.0
  0
SPLINE
  5
88
330
1F
100
AcDbEntity
  8
0
  6
Continuous
 62
     7
370
    15
100
AcDbSpline
210
0.0
220
0.0
230
1.0
 70
     8
 71
     3
 72
     8
 73
     4
 74
     0
 42
0.000000001
 43
0.00000001
 40
0.9952053582795715
 40
0.9952053582795715
 40
0.9952053582795715
 40
0.9952053582795715
 40
1.0
 40
1.0
 40
1.0
 40
1.0
 10
-308.7153504682761
 20
-451.9631115732508
 30
0.0
 10
-308.9409708706296
 20
-451.9680822277198
 30
0.0
 10
-309.1665983843043
 20
-451.9729174336185
 30
0.0
 10
-309.392225897979
 20
-451.9777526395172
 30
0.0
  0
SPLINE
  5
8C
330
1F
100
AcDbEntity
  8
0
  6
Continuous
 62
     7
370
    15
100
AcDbSpline
210
0.0
220
0.0
230
1.0
 70
     8
 71
     3
 72
    29
 73
    25
 74
     0
 42
0.000000001
 43
0.00000001
 40
0.0
 40
0.0
 40
0.0
 40
0.0
 40
0.0422923200489304
 40
0.083974900452375
 40
0.1254399405975572
 40
0.1668368550016411
 40
0.2082649676273546
 40
0.2498807336844752
 40
0.2919789734504152
 40
0.3349131264161082
 40
0.37777685142164
 40
0.4202459872464904
 40
0.462266722329255
 40
0.5041453093734737
 40
0.5462052872371165
 40
0.5883356212754441
 40
0.6310334764171237
 40
0.6742560120057008
 40
0.7173348283040524
 40
0.7592646441573024
 40
0.8004772494754466
 40
0.8409653404152146
 40
0.8809584929983032
 40
0.9069680660453854
 40
0.9069680660453854
 40
0.9069680660453854
 40
0.9069680660453854
 10
-219.0466730133635
 20
-361.8573600113121
 30
0.0
 10
-219.084079433695
 20
-363.847711866622
 30
0.0
 10
-219.1583529760302
 20
-367.7997201442827
 30
0.0
 10
-219.7686885343794
 20
-373.6777714466595
 30
0.0
 10
-220.7620064814985
 20
-379.4560988453815
 30
0.0
 10
-222.0962840034867
 20
-385.1552052445162
 30
0.0
 10
-223.88218792363
 20
-390.7380900930875
 30
0.0
 10
-226.068188204333
 20
-396.2092155933395
 30
0.0
 10
-228.5946426160062
 20
-401.611699160845
 30
0.0
 10
-231.5519865156353
 20
-406.8576380026816
 30
0.0
 10
-234.7909952656672
 20
-411.9551746469679
 30
0.0
 10
-238.3808877913577
 20
-416.7592055997834
 30
0.0
 10
-242.2098252299486
 20
-421.313277422334
 30
0.0
 10
-246.3387334270157
 20
-425.5720440085476
 30
0.0
 10
-250.7289445333463
 20
-429.5660845363769
 30
0.0
 10
-255.3869984327251
 20
-433.3092746490809
 30
0.0
 10
-260.3563225964796
 20
-436.7234222302658
 30
0.0
 10
-265.5303658606134
 20
-439.9040052589017
 30
0.0
 10
-270.8766711275837
 20
-442.7084251172023
 30
0.0
 10
-276.2636954374279
 20
-445.2164414981456
 30
0.0
 10
-281.7009764225426
 20
-447.2985788058326
 30
0.0
 10
-287.1757996130412
 20
-448.9887170710659
 30
0.0
 10
-292.0496563025651
 20
-450.1670778370983
 30
0.0
 10
-295.1046881990179
 20
-450.731536468195
 30
0.0
 10
-296.3129862480115
 20
-450.9274776254969
 30
0.0
  0
SPLINE
  5
8D
330
1F
100
AcDbEntity
  8
0
  6
Continuous
 62
     7
370
    15
100
AcDbSpline
210
0.0
220
0.0
230
1.0
 70
     8
 71
     3
 72
    22
 73
    18
 74
     0
 42
0.000000001
 43
0.00000001
 40
0.1124436605048116
 40
0.1124436605048116
 40
0.1124436605048116
 40
0.1124436605048116
 40
0.1343755093659632
 40
0.1980571060406612
 40
0.260379004676887
 40
0.3214466963814934
 40
0.381918000276489
 40
0.4429706152038697
 40
0.5045573756251526
 40
0.565989743536053
 40
0.6263278947346684
 40
0.6858568065395859
 40
0.7457354928172161
 40
0.8062780652153122
 40
0.8686465933712075
 40
0.933013076084608
 40
1.0
 40
1.0
 40
1.0
 40
1.0
 10
-266.9971089656074
 20
-306.7347817482875
 30
0.0
 10
-266.3417484144524
 20
-306.8230687714084
 30
0.0
 10
-263.7889447268819
 20
-307.2080398661417
 30
0.0
 10
-259.4259058365097
 20
-308.1505234056033
 30
0.0
 10
-254.0297968919002
 20
-309.8183107506038
 30
0.0
 10
-248.9443269115453
 20
-312.0432328406765
 30
0.0
 10
-244.1142077490722
 20
-314.6969524848486
 30
0.0
 10
-239.57827854044
 20
-317.8585280189769
 30
0.0
 10
-235.3657287428594
 20
-321.4828022716774
 30
0.0
 10
-231.5554066143245
 20
-325.496403915605
 30
0.0
 10
-228.1779711073907
 20
-329.8045898172202
 30
0.0
 10
-225.3455444988516
 20
-334.4355750274479
 30
0.0
 10
-223.0225050530356
 20
-339.3488133390109
 30
0.0
 10
-221.2560204830342
 20
-344.5777360297859
 30
0.0
 10
-219.9542067394991
 20
-350.0773593577643
 30
0.0
 10
-219.1870027420303
 20
-355.8783203196755
 30
0.0
 10
-219.094067594342
 20
-359.83801540393
 30
0.0
 10
-219.0466730133635
 20
-361.8573600113121
 30
0.0
  0
SPLINE
  5
91
330
1F
100
AcDbEntity
  8
0
  6
Continuous
 62
     7
370
    15
100
AcDbSpline
210
0.0
220
0.0
230
1.0
 70
     8
 71
     3
 72
    31
 73
    27
 74
     0
 42
0.000000001
 43
0.00000001
 40
0.0
 40
0.0
 40
0.0
 40
0.0
 40
0.0420296911892363
 40
0.0836484914265386
 40
0.1252480593151995
 40
0.1666794462070833
 40
0.2084326248390934
 40
0.2508149791426104
 40
0.2934969621643155
 40
0.3371920210835015
 40
0.3809159154355042
 40
0.4238884556358515
 40
0.4665057056944436
 40
0.5086708381468656
 40
0.5504254542057726
 40
0.5923808239604639
 40
0.634562085282277
 40
0.6770335609614971
 40
0.719181134395935
 40
0.7606183153471738
 40
0.8012613987321039
 40
0.8414988227465299
 40
0.8811860621948927
 40
0.9207804398961975
 40
0.9603692591797979
 40
0.9987748651721968
 40
0.9987748651721968
 40
0.9987748651721968
 40
0.9987748651721968
 10
-366.7518012184919
 20
-396.3913143382351
 30
0.0
 10
-366.7147480280738
 20
-394.4195886522816
 30
0.0
 10
-366.6410038868887
 20
-390.4954132783923
 30
0.0
 10
-366.0213890078448
 20
-384.6476859954387
 30
0.0
 10
-365.0600639319782
 20
-378.876089501058
 30
0.0
 10
-363.6181139173326
 20
-373.1988680394028
 30
0.0
 10
-361.8603149509988
 20
-367.5739275827607
 30
0.0
 10
-359.6513963661126
 20
-362.0458477336879
 30
0.0
 10
-357.0815059767608
 20
-356.5770921626986
 30
0.0
 10
-354.1149641741864
 20
-351.2389392925332
 30
0.0
 10
-350.8001220695222
 20
-346.0960641688919
 30
0.0
 10
-347.2561630352705
 20
-341.1699404182933
 30
0.0
 10
-343.4267523742506
 20
-336.5548559442848
 30
0.0
 10
-339.3389768590235
 20
-332.2471987742538
 30
0.0
 10
-335.0143342931003
 20
-328.2217632432643
 30
0.0
 10
-330.4160964410615
 20
-324.5110562923365
 30
0.0
 10
-325.5742558563545
 20
-321.0665381914617
 30
0.0
 10
-320.4965397730571
 20
-317.9610542600813
 30
0.0
 10
-315.2691743826917
 20
-315.1947648484378
 30
0.0
 10
-309.9921449782587
 20
-312.7133183922689
 30
0.0
 10
-304.612471238234
 20
-310.708378423364
 30
0.0
 10
-299.22000409697
 20
-308.9933629667057
 30
0.0
 10
-293.7575162880904
 20
-307.7165540314184
 30
0.0
 10
-288.266729077873
 20
-306.7281693109541
 30
0.0
 10
-282.7688275141218
 20
-306.2110554306204
 30
0.0
 10
-279.1114203426737
 20
-306.1206211529214
 30
0.0
 10
-277.3103784747947
 20
-306.0779830827933
 30
0.0
  0
SPLINE
  5
93
330
1F
100
AcDbEntity
  8
0
  6
Continuous
 62
     7
370
    15
100
AcDbSpline
210
0.0
220
0.0
230
1.0
 70
     8
 71
     3
 72
    15
 73
    11
 74
     0
 42
0.000000001
 43
0.00000001
 40
0.0
 40
0.0
 40
0.0
 40
0.0
 40
0.1282273121317341
 40
0.2413694389629178
 40
0.3442872333030972
 40
0.4427149882785881
 40
0.5485791677338069
 40
0.6749577266268271
 40
0.8247138665848005
 40
1.0
 40
1.0
 40
1.0
 40
1.0
 10
-491.6313084300303
 20
-325.5502686651582
 30
0.0
 10
-491.7849681488771
 20
-324.8026342514671
 30
0.0
 10
-492.0742104289553
 20
-323.3953201934709
 30
0.0
 10
-492.8596551608571
 20
-321.486220037383
 30
0.0
 10
-493.9547488987051
 20
-319.9531603749343
 30
0.0
 10
-495.3354808878352
 20
-318.7258434144926
 30
0.0
 10
-497.1312108602488
 20
-317.8793293905453
 30
0.0
 10
-499.3271824884764
 20
-317.2767049898513
 30
0.0
 10
-501.9966041805701
 20
-316.9273250704562
 30
0.0
 10
-503.9296282458383
 20
-316.8976186359275
 30
0.0
 10
-504.9720536223379
 20
-316.8815987933634
 30
0.0
  0
SPLINE
  5
97
330
1F
100
AcDbEntity
  8
0
  6
Continuous
 62
     7
370
    15
100
AcDbSpline
210
0.0
220
0.0
230
1.0
 70
     8
 71
     3
 72
    15
 73
    11
 74
     0
 42
0.000000001
 43
0.00000001
 40
0.0
 40
0.0
 40
0.0
 40
0.0
 40
0.1373455327651095
 40
0.2676028634983353
 40
0.3944274904608241
 40
0.5166017480710364
 40
0.6365220127575214
 40
0.7562734254444059
 40
0.8766771429805488
 40
1.0
 40
1.0
 40
1.0
 40
1.0
 10
-357.9142611543894
 20
-316.8815987933634
 30
0.0
 10
-359.034070943978
 20
-317.0205742864689
 30
0.0
 10
-361.215898778014
 20
-317.2913529507789
 30
0.0
 10
-364.3748490088655
 20
-318.0347952223397
 30
0.0
 10
-367.3276891380072
 20
-319.0402385640695
 30
0.0
 10
-370.0798303766836
 20
-320.3180496037258
 30
0.0
 10
-372.6399376340199
 20
-321.8397186926315
 30
0.0
 10
-374.9764958624662
 20
-323.6599084932704
 30
0.0
 10
-377.1509543514395
 20
-325.7169534821024
 30
0.0
 10
-378.3940453673018
 20
-327.2882589621201
 30
0.0
 10
-379.0230351928507
 20
-328.0833215497737
 30
0.0
  0
SPLINE
  5
9C
330
1F
100
AcDbEntity
  8
0
  6
Continuous
 62
     7
370
    15
100
AcDbSpline
210
0.0
220
0.0
230
1.0
 70
     8
 71
     3
 72
    15
 73
    11
 74
     0
 42
0.000000001
 43
0.00000001
 40
0.0
 40
0.0
 40
0.0
 40
0.0
 40
0.1096878785200513
 40
0.2109112916049635
 40
0.3100579917140209
 40
0.4129147647491819
 40
0.5273050251375881
 40
0.6616863178336632
 40
0.8173698418158452
 40
1.0
 40
1.0
 40
1.0
 40
1.0
 10
-389.2396818274661
 20
-325.8317189856711
 30
0.0
 10
-389.2711914887354
 20
-325.1415135461104
 30
0.0
 10
-389.3317792532724
 20
-323.8143648885322
 30
0.0
 10
-389.9778945376591
 20
-321.950463328431
 30
0.0
 10
-391.0465960436798
 20
-320.352189570205
 30
0.0
 10
-392.5760842264945
 20
-319.04944437219
 30
0.0
 10
-394.5680870618442
 20
-318.066721184708
 30
0.0
 10
-397.0117735981224
 20
-317.3491154630801
 30
0.0
 10
-399.959354548568
 20
-316.9476886566061
 30
0.0
 10
-402.0819388468246
 20
-316.9047682815952
 30
0.0
 10
-403.2277627569534
 20
-316.8815987933634
 30
0.0
  0
SPLINE
  5
9D
330
1F
100
AcDbEntity
  8
0
  6
Continuous
 62
     7
370
    15
100
AcDbSpline
210
0.0
220
0.0
230
1.0
 70
     8
 71
     3
 72
    11
 73
     7
 74
     0
 42
0.000000001
 43
0.00000001
 40
0.0
 40
0.0
 40
0.0
 40
0.0
 40
0.2992990300576112
 40
0.5615139896562884
 40
0.7929545680049941
 40
1.0
 40
1.0
 40
1.0
 40
1.0
 10
-393.7428869556712
 20
-337.399327158748
 30
0.0
 10
-393.0605385434629
 20
-336.3441940462909
 30
0.0
 10
-391.7803867862015
 20
-334.3646620595676
 30
0.0
 10
-390.3547868131798
 20
-331.3548233630831
 30
0.0
 10
-389.4271980579671
 20
-328.5412495761316
 30
0.0
 10
-389.299825108496
 20
-326.7007640775308
 30
0.0
 10
-389.2396818274661
 20
-325.8317189856711
 30
0.0
  0
SPLINE
  5
A0
330
1F
100
AcDbEntity
  8
0
  6
Continuous
 62
     7
370
    15
100
AcDbSpline
210
0.0
220
0.0
230
1.0
 70
     8
 71
     3
 72
    11
 73
     7
 74
     0
 42
0.000000001
 43
0.00000001
 40
0.0
 40
0.0
 40
0.0
 40
0.0
 40
0.201345553091595
 40
0.4331204941005061
 40
0.6995215879976241
 40
1.0
 40
1.0
 40
1.0
 40
1.0
 10
-469.4248781415686
 20
-324.1430170625942
 30
0.0
 10
-469.4119651158333
 20
-324.7155643812441
 30
0.0
 10
-469.3841875165716
 20
-325.9471881928546
 30
0.0
 10
-469.2081568183428
 20
-327.9304101532796
 30
0.0
 10
-468.8801417979922
 20
-330.1782064851307
 30
0.0
 10
-468.6291382529903
 20
-331.7706081619071
 30
0.0
 10
-468.4960920838763
 20
-332.6146717100301
 30
0.0
  0
SPLINE
  5
A1
330
1F
100
AcDbEntity
  8
0
  6
Continuous
 62
     7
370
    15
100
AcDbSpline
210
0.0
220
0.0
230
1.0
 70
     8
 71
     3
 72
    15
 73
    11
 74
     0
 42
0.000000001
 43
0.00000001
 40
0.0
 40
0.0
 40
0.0
 40
0.0
 40
0.1975899549633464
 40
0.3637177855661528
 40
0.4999029476946832
 40
0.6104949811022262
 40
0.705482202278544
 40
0.7969267008243884
 40
0.8930402615531434
 40
1.0
 40
1.0
 40
1.0
 40
1.0
 10
-456.984773974902
 20
-316.8815987933634
 30
0.0
 10
-458.0650502109904
 20
-316.897803743115
 30
0.0
 10
-460.0535909769557
 20
-316.9276333386529
 30
0.0
 10
-462.7673645420612
 20
-317.2665279857122
 30
0.0
 10
-464.979300897832
 20
-317.7503965119116
 30
0.0
 10
-466.6925365215575
 20
-318.5432864767915
 30
0.0
 10
-467.942811820591
 20
-319.6080499352392
 30
0.0
 10
-468.8245988756257
 20
-320.8965152638702
 30
0.0
 10
-469.3432349898701
 20
-322.4451204560885
 30
0.0
 10
-469.396711691249
 20
-323.5572518217853
 30
0.0
 10
-469.4248781415689
 20
-324.1430170625942
 30
0.0
  0
SPLINE
  5
CB
330
1F
100
AcDbEntity
  8
0
  6
Continuous
 62
     7
370
    15
100
AcDbSpline
210
0.0
220
0.0
230
1.0
 70
     8
 71
     3
 72
    15
 73
    11
 74
     0
 42
0.000000001
 43
0.00000001
 40
0.0
 40
0.0
 40
0.0
 40
0.0
 40
0.0993020667541188
 40
0.1900487300297407
 40
0.2836497568641502
 40
0.3832428386911919
 40
0.4981438430362181
 40
0.6361593164528595
 40
0.8026050555425637
 40
1.0
 40
1.0
 40
1.0
 40
1.0
 10
-165.2052266992611
 20
-322.229154883107
 30
0.0
 10
-165.2308198995013
 20
-321.8217886774891
 30
0.0
 10
-165.2798013090736
 20
-321.0421530408373
 30
0.0
 10
-165.7024822599562
 20
-319.9433866684541
 30
0.0
 10
-166.3909943597042
 20
-318.9903792488545
 30
0.0
 10
-167.4030279640689
 20
-318.2163402080192
 30
0.0
 10
-168.7107456822015
 20
-317.590292925721
 30
0.0
 10
-170.3783274151042
 20
-317.1533394886825
 30
0.0
 10
-172.4225316189659
 20
-316.9222285975047
 30
0.0
 10
-173.9108099918383
 20
-316.8958889017094
 30
0.0
 10
-174.7182475325943
 20
-316.8815987933634
 30
0.0
  0
SPLINE
  5
CC
330
1F
100
AcDbEntity
  8
0
  6
Continuous
 62
     7
370
    15
100
AcDbSpline
210
0.0
220
0.0
230
1.0
 70
     8
 71
     3
 72
     9
 73
     5
 74
     0
 42
0.000000001
 43
0.00000001
 40
0.0
 40
0.0
 40
0.0
 40
0.0
 40
0.5186378051278706
 40
0.9999999999999999
 40
0.9999999999999999
 40
0.9999999999999999
 40
0.9999999999999999
 10
-165.6274021800303
 20
-324.5933375754146
 30
0.0
 10
-165.507927381919
 20
-324.1927839176285
 30
0.0
 10
-165.277564695416
 20
-323.4204652516428
 30
0.0
 10
-165.2287326161276
 20
-322.6162659999948
 30
0.0
 10
-165.2052266992611
 20
-322.229154883107
 30
0.0
  0
SPLINE
  5
CE
330
1F
100
AcDbEntity
  8
0
  6
Continuous
 62
     7
370
    15
100
AcDbSpline
210
0.0
220
0.0
230
1.0
 70
     8
 71
     3
 72
    15
 73
    11
 74
     0
 42
0.000000001
 43
0.00000001
 40
0.0
 40
0.0
 40
0.0
 40
0.0
 40
0.1664128423736572
 40
0.314264884613321
 40
0.4488442194584085
 40
0.5699161544123588
 40
0.6817960638414099
 40
0.7865957205839292
 40
0.8920785383402219
 40
1.0
 40
1.0
 40
1.0
 40
1.0
 10
-210.9971938466969
 20
-442.971342383107
 30
0.0
 10
-210.0487791567485
 20
-442.951654766976
 30
0.0
 10
-208.257730888773
 20
-442.9144753863259
 30
0.0
 10
-205.7129143470647
 20
-442.5887832708021
 30
0.0
 10
-203.4876000432763
 20
-441.9929454687053
 30
0.0
 10
-201.528493353238
 20
-441.2270283501157
 30
0.0
 10
-199.9043013943513
 20
-440.1691411367622
 30
0.0
 10
-198.5658663525104
 20
-438.901228528983
 30
0.0
 10
-197.5160561695278
 20
-437.3945399963524
 30
0.0
 10
-197.1232999904077
 20
-436.2383401294606
 30
0.0
 10
-196.924677821056
 20
-435.6536340497736
 30
0.0
  0
SPLINE
  5
D4
330
1F
100
AcDbEntity
  8
0
  6
Continuous
 62
     7
370
    15
100
AcDbSpline
210
0.0
220
0.0
230
1.0
 70
     8
 71
     3
 72
    15
 73
    11
 74
     0
 42
0.000000001
 43
0.00000001
 40
0.0
 40
0.0
 40
0.0
 40
0.0
 40
0.0992748374126565
 40
0.1917720761373727
 40
0.283867564755255
 40
0.3792320027581503
 40
0.4905888946284235
 40
0.6290672430746259
 40
0.7983972613498533
 40
1.0
 40
1.0
 40
1.0
 40
1.0
 10
-174.1553468915687
 20
-436.8357253959275
 30
0.0
 10
-174.1331723997027
 20
-437.3088414529772
 30
0.0
 10
-174.090337292104
 20
-438.2227734308983
 30
0.0
 10
-173.6170703590944
 20
-439.5087900100735
 30
0.0
 10
-172.8356344016927
 20
-440.6004063289163
 30
0.0
 10
-171.7349107863951
 20
-441.52258075094
 30
0.0
 10
-170.2216429921639
 20
-442.1966558954485
 30
0.0
 10
-168.2750684832156
 20
-442.6364089365645
 30
0.0
 10
-165.8719391694133
 20
-442.9522734910685
 30
0.0
 10
-164.108870768055
 20
-442.9646277935527
 30
0.0
 10
-163.1506393595175
 20
-442.971342383107
 30
0.0
  0
SPLINE
  5
D5
330
1F
100
AcDbEntity
  8
0
  6
Continuous
 62
     7
370
    15
100
AcDbSpline
210
0.0
220
0.0
230
1.0
 70
     8
 71
     3
 72
     9
 73
     5
 74
     0
 42
0.000000001
 43
0.00000001
 40
0.0
 40
0.0
 40
0.0
 40
0.0
 40
0.4471156429909444
 40
1.0
 40
1.0
 40
1.0
 40
1.0
 10
-173.7613164428508
 20
-432.7828407805429
 30
0.0
 10
-173.8693222200347
 20
-433.3818089649046
 30
0.0
 10
-174.1108833885536
 20
-434.7214359579462
 30
0.0
 10
-174.1395162373646
 20
-436.0829600330894
 30
0.0
 10
-174.1553468915687
 20
-436.8357253959275
 30
0.0
  0
SPLINE
  5
D7
330
1F
100
AcDbEntity
  8
0
  6
Continuous
 62
     7
370
    15
100
AcDbSpline
210
0.0
220
0.0
230
1.0
 70
     8
 71
     3
 72
    15
 73
    11
 74
     0
 42
0.000000001
 43
0.00000001
 40
0.0
 40
0.0
 40
0.0
 40
0.0
 40
0.1501688218620276
 40
0.2834171843217906
 40
0.4033739262983665
 40
0.5107357503624587
 40
0.6169841212139193
 40
0.7304449441432165
 40
0.8576782826942387
 40
1.0
 40
1.0
 40
1.0
 40
1.0
 10
-131.4874783018252
 20
-316.8815987933634
 30
0.0
 10
-132.3060643680671
 20
-316.8939320481363
 30
0.0
 10
-133.8510012940058
 20
-316.9172088928096
 30
0.0
 10
-136.0136359690448
 20
-317.3335005799199
 30
0.0
 10
-137.8964845316904
 20
-317.9163939972167
 30
0.0
 10
-139.4825573015231
 20
-318.8279028131923
 30
0.0
 10
-140.8236021398315
 20
-320.0183641775187
 30
0.0
 10
-141.9298654379613
 20
-321.562931654033
 30
0.0
 10
-142.8568224959975
 20
-323.4393348769393
 30
0.0
 10
-143.2997119145506
 20
-324.8392669645214
 30
0.0
 10
-143.5335520197739
 20
-325.5784136972095
 30
0.0
  0
LINE
  5
11B
330
1F
100
AcDbEntity
  8
0
  6
Continuous
 62
     7
370
    15
100
AcDbLine
 10
-67.5220518451
 20
-376.3583719072
 30
0.0
 11
-67.5220518451
 21
-365.8086888768
 31
0.0
  0
LINE
  5
11C
330
1F
100
AcDbEntity
  8
0
  6
Continuous
 62
     7
370
    15
100
AcDbLine
 10
-95.8770170727
 20
-371.17779576
 30
0.0
 11
-67.5220518451
 21
-376.3583719072
 31
0.0
  0
LINE
  5
11D
330
1F
100
AcDbEntity
  8
0
  6
Continuous
 62
     7
370
    15
100
AcDbLine
 10
-113.3902226929
 20
-433.2613063254
 30
0.0
 11
-95.8770170727
 21
-371.17779576
 31
0.0
  0
LINE
  5
11E
330
1F
100
AcDbEntity
  8
0
  6
Continuous
 62
     7
370
    15
100
AcDbLine
 10
-136.0469734941
 20
-442.9713423831
 30
0.0
 11
-127.8849141993
 21
-442.9713423831
 31
0.0
  0
LINE
  5
11F
330
1F
100
AcDbEntity
  8
0
  6
Continuous
 62
     7
370
    15
100
AcDbLine
 10
-138.0734158018
 20
-450.1764705882
 30
0.0
 11
-136.0469734941
 21
-442.9713423831
 31
0.0
  0
LINE
  5
120
330
1F
100
AcDbEntity
  8
0
  6
Continuous
 62
     7
370
    15
100
AcDbLine
 10
-60.4212723723
 20
-450.1764705882
 30
0.0
 11
-138.0734158018
 21
-450.1764705882
 31
0.0
  0
LINE
  5
121
330
1F
100
AcDbEntity
  8
0
  6
Continuous
 62
     7
370
    15
100
AcDbLine
 10
-17.0123331032
 20
-400.55560852
 30
0.0
 11
14.3749485117
 21
-410.0051618337
 31
0.0
  0
LINE
  5
122
330
1F
100
AcDbEntity
  8
0
  6
Continuous
 62
     7
370
    15
100
AcDbLine
 10
-13.7923101692
 20
-389.8601012003
 30
0.0
 11
-17.0123331032
 21
-400.55560852
 31
0.0
  0
LINE
  5
123
330
1F
100
AcDbEntity
  8
0
  6
Continuous
 62
     7
370
    15
100
AcDbLine
 10
19.2330692713
 20
-399.8028253763
 30
0.0
 11
-13.7923101692
 21
-389.8601012003
 31
0.0
  0
LINE
  5
124
330
1F
100
AcDbEntity
  8
0
  6
Continuous
 62
     7
370
    15
100
AcDbLine
 10
-103.8209117954
 20
-309.6764705882
 30
0.0
 11
-34.9218733339
 21
-309.6764705882
 31
0.0
  0
LINE
  5
125
330
1F
100
AcDbEntity
  8
0
  6
Continuous
 62
     7
370
    15
100
AcDbLine
 10
-105.6503388787
 20
-316.8815987934
 30
0.0
 11
-103.8209117954
 21
-309.6764705882
 31
0.0
  0
LINE
  5
126
330
1F
100
AcDbEntity
  8
0
  6
Continuous
 62
     7
370
    15
100
AcDbLine
 10
-94.4486161223
 20
-316.8815987934
 30
0.0
 11
-105.6503388787
 21
-316.8815987934
 31
0.0
  0
LINE
  5
127
330
1F
100
AcDbEntity
  8
0
  6
Continuous
 62
     7
370
    15
100
AcDbLine
 10
-93.046907226
 20
-361.1451861751
 30
0.0
 11
-82.712137757
 21
-324.5089024793
 31
0.0
  0
LINE
  5
128
330
1F
100
AcDbEntity
  8
0
  6
Continuous
 62
     7
370
    15
100
AcDbLine
 10
-67.5220518451
 20
-365.8086888768
 30
0.0
 11
-93.046907226
 21
-361.1451861751
 31
0.0
  0
LINE
  5
129
330
1F
100
AcDbEntity
  8
0
  6
Continuous
 62
     7
370
    15
100
AcDbLine
 10
-308.7153504683
 20
-379.2065283422
 30
0.0
 11
-308.7153504683
 21
-451.9631115733
 31
0.0
  0
LINE
  5
12A
330
1F
100
AcDbEntity
  8
0
  6
Continuous
 62
     7
370
    15
100
AcDbLine
 10
-296.312986248
 20
-379.2065283422
 30
0.0
 11
-308.7153504683
 21
-379.2065283422
 31
0.0
  0
LINE
  5
12B
330
1F
100
AcDbEntity
  8
0
  6
Continuous
 62
     7
370
    15
100
AcDbLine
 10
-296.312986248
 20
-450.9274776255
 30
0.0
 11
-296.312986248
 21
-379.2065283422
 31
0.0
  0
LINE
  5
12C
330
1F
100
AcDbEntity
  8
0
  6
Continuous
 62
     7
370
    15
100
AcDbLine
 10
-266.9971089656
 20
-333.5545432469
 30
0.0
 11
-266.9971089656
 21
-306.7347817483
 31
0.0
  0
LINE
  5
12D
330
1F
100
AcDbEntity
  8
0
  6
Continuous
 62
     7
370
    15
100
AcDbLine
 10
-277.3103784748
 20
-333.5545432469
 30
0.0
 11
-266.9971089656
 21
-333.5545432469
 31
0.0
  0
LINE
  5
12E
330
1F
100
AcDbEntity
  8
0
  6
Continuous
 62
     7
370
    15
100
AcDbLine
 10
-277.3103784748
 20
-306.0779830828
 30
0.0
 11
-277.3103784748
 21
-333.5545432469
 31
0.0
  0
LINE
  5
12F
330
1F
100
AcDbEntity
  8
0
  6
Continuous
 62
     7
370
    15
100
AcDbLine
 10
-504.9720536223
 20
-316.8815987934
 30
0.0
 11
-509.5878388787
 21
-316.8815987934
 31
0.0
  0
LINE
  5
130
330
1F
100
AcDbEntity
  8
0
  6
Continuous
 62
     7
370
    15
100
AcDbLine
 10
-469.4811682057
 20
-451.9777526395
 30
0.0
 11
-491.63130843
 21
-325.5502686652
 31
0.0
  0
LINE
  5
131
330
1F
100
AcDbEntity
  8
0
  6
Continuous
 62
     7
370
    15
100
AcDbLine
 10
-461.8257194877
 20
-451.9777526395
 30
0.0
 11
-469.4811682057
 21
-451.9777526395
 31
0.0
  0
LINE
  5
132
330
1F
100
AcDbEntity
  8
0
  6
Continuous
 62
     7
370
    15
100
AcDbLine
 10
-379.0230351929
 20
-328.0833215498
 30
0.0
 11
-461.8257194877
 21
-451.9777526395
 31
0.0
  0
LINE
  5
133
330
1F
100
AcDbEntity
  8
0
  6
Continuous
 62
     7
370
    15
100
AcDbLine
 10
-356.2818492954
 20
-309.6764705882
 30
0.0
 11
-357.9142611544
 21
-316.8815987934
 31
0.0
  0
LINE
  5
134
330
1F
100
AcDbEntity
  8
0
  6
Continuous
 62
     7
370
    15
100
AcDbLine
 10
-405.985975898
 20
-309.6764705882
 30
0.0
 11
-356.2818492954
 21
-309.6764705882
 31
0.0
  0
LINE
  5
135
330
1F
100
AcDbEntity
  8
0
  6
Continuous
 62
     7
370
    15
100
AcDbLine
 10
-407.5058076287
 20
-316.8815987934
 30
0.0
 11
-405.985975898
 21
-309.6764705882
 31
0.0
  0
LINE
  5
136
330
1F
100
AcDbEntity
  8
0
  6
Continuous
 62
     7
370
    15
100
AcDbLine
 10
-403.227762757
 20
-316.8815987934
 30
0.0
 11
-407.5058076287
 21
-316.8815987934
 31
0.0
  0
LINE
  5
137
330
1F
100
AcDbEntity
  8
0
  6
Continuous
 62
     7
370
    15
100
AcDbLine
 10
-452.3126986544
 20
-425.0148119344
 30
0.0
 11
-393.7428869557
 21
-337.3993271587
 31
0.0
  0
LINE
  5
138
330
1F
100
AcDbEntity
  8
0
  6
Continuous
 62
     7
370
    15
100
AcDbLine
 10
-468.4960920839
 20
-332.61467171
 30
0.0
 11
-452.3126986544
 21
-425.0148119344
 31
0.0
  0
LINE
  5
139
330
1F
100
AcDbEntity
  8
0
  6
Continuous
 62
     7
370
    15
100
AcDbLine
 10
-449.8359358339
 20
-316.8815987934
 30
0.0
 11
-456.9847739749
 21
-316.8815987934
 31
0.0
  0
LINE
  5
13A
330
1F
100
AcDbEntity
  8
0
  6
Continuous
 62
     7
370
    15
100
AcDbLine
 10
-448.2035239749
 20
-309.6764705882
 30
0.0
 11
-449.8359358339
 21
-316.8815987934
 31
0.0
  0
LINE
  5
13B
330
1F
100
AcDbEntity
  8
0
  6
Continuous
 62
     7
370
    15
100
AcDbLine
 10
-508.3494574685
 20
-309.6764705882
 30
0.0
 11
-448.2035239749
 21
-309.6764705882
 31
0.0
  0
LINE
  5
13C
330
1F
100
AcDbEntity
  8
0
  6
Continuous
 62
     7
370
    15
100
AcDbLine
 10
-509.5878388787
 20
-316.8815987934
 30
0.0
 11
-508.3494574685
 21
-309.6764705882
 31
0.0
  0
LINE
  5
13D
330
1F
100
AcDbEntity
  8
0
  6
Continuous
 62
     7
370
    15
100
AcDbLine
 10
497.0989676672
 20
199.8235294118
 30
0.0
 11
497.0989676672
 21
189.8235294118
 31
0.0
  0
LINE
  5
13E
330
1F
100
AcDbEntity
  8
0
  6
Continuous
 62
     7
370
    15
100
AcDbLine
 10
497.0989676672
 20
189.8235294118
 30
0.0
 11
667.0989676672
 21
189.8235294118
 31
0.0
  0
LINE
  5
13F
330
1F
100
AcDbEntity
  8
0
  6
Continuous
 62
     7
370
    15
100
AcDbLine
 10
667.0989676672
 20
189.8235294118
 30
0.0
 11
667.0989676672
 21
199.8235294118
 31
0.0
  0
LINE
  5
140
330
1F
100
AcDbEntity
  8
0
  6
Continuous
 62
     7
370
    15
100
AcDbLine
 10
667.0989676672
 20
199.8235294118
 30
0.0
 11
497.0989676672
 21
199.8235294118
 31
0.0
  0
LINE
  5
141
330
1F
100
AcDbEntity
  8
0
  6
Continuous
 62
     7
370
    15
100
AcDbLine
 10
497.0989676672
 20
229.8235294118
 30
0.0
 11
497.0989676672
 21
219.8235294118
 31
0.0
  0
LINE
  5
142
330
1F
100
AcDbEntity
  8
0
  6
Continuous
 62
     7
370
    15
100
AcDbLine
 10
497.0989676672
 20
219.8235294118
 30
0.0
 11
667.0989676672
 21
219.8235294118
 31
0.0
  0
LINE
  5
143
330
1F
100
AcDbEntity
  8
0
  6
Continuous
 62
     7
370
    15
100
AcDbLine
 10
667.0989676672
 20
219.8235294118
 30
0.0
 11
667.0989676672
 21
229.8235294118
 31
0.0
  0
LINE
  5
144
330
1F
100
AcDbEntity
  8
0
  6
Continuous
 62
     7
370
    15
100
AcDbLine
 10
667.0989676672
 20
229.8235294118
 30
0.0
 11
497.0989676672
 21
229.8235294118
 31
0.0
  0
LINE
  5
145
330
1F
100
AcDbEntity
  8
0
  6
Continuous
 62
     7
370
    15
100
AcDbLine
 10
497.0989676672
 20
259.8235294118
 30
0.0
 11
497.0989676672
 21
249.8235294118
 31
0.0
  0
LINE
  5
146
330
1F
100
AcDbEntity
  8
0
  6
Continuous
 62
     7
370
    15
100
AcDbLine
 10
497.0989676672
 20
249.8235294118
 30
0.0
 11
667.0989676672
 21
249.8235294118
 31
0.0
  0
LINE
  5
147
330
1F
100
AcDbEntity
  8
0
  6
Continuous
 62
     7
370
    15
100
AcDbLine
 10
667.0989676672
 20
249.8235294118
 30
0.0
 11
667.0989676672
 21
259.8235294118
 31
0.0
  0
LINE
  5
148
330
1F
100
AcDbEntity
  8
0
  6
Continuous
 62
     7
370
    15
100
AcDbLine
 10
667.0989676672
 20
259.8235294118
 30
0.0
 11
497.0989676672
 21
259.8235294118
 31
0.0
  0
LINE
  5
149
330
1F
100
AcDbEntity
  8
0
  6
Continuous
 62
     7
370
    15
100
AcDbLine
 10
-512.9010323328
 20
199.8235294118
 30
0.0
 11
-512.9010323328
 21
189.8235294118
 31
0.0
  0
LINE
  5
14A
330
1F
100
AcDbEntity
  8
0
  6
Continuous
 62
     7
370
    15
100
AcDbLine
 10
-512.9010323328
 20
189.8235294118
 30
0.0
 11
-352.9010323328
 21
189.8235294118
 31
0.0
  0
LINE
  5
14B
330
1F
100
AcDbEntity
  8
0
  6
Continuous
 62
     7
370
    15
100
AcDbLine
 10
-352.9010323328
 20
189.8235294118
 30
0.0
 11
-352.9010323328
 21
199.8235294118
 31
0.0
  0
LINE
  5
14C
330
1F
100
AcDbEntity
  8
0
  6
Continuous
 62
     7
370
    15
100
AcDbLine
 10
-352.9010323328
 20
199.8235294118
 30
0.0
 11
-512.9010323328
 21
199.8235294118
 31
0.0
  0
LINE
  5
14D
330
1F
100
AcDbEntity
  8
0
  6
Continuous
 62
     7
370
    15
100
AcDbLine
 10
-512.9010323328
 20
229.8235294118
 30
0.0
 11
-512.9010323328
 21
219.8235294118
 31
0.0
  0
LINE
  5
14E
330
1F
100
AcDbEntity
  8
0
  6
Continuous
 62
     7
370
    15
100
AcDbLine
 10
-512.9010323328
 20
219.8235294118
 30
0.0
 11
-352.9010323328
 21
219.8235294118
 31
0.0
  0
LINE
  5
14F
330
1F
100
AcDbEntity
  8
0
  6
Continuous
 62
     7
370
    15
100
AcDbLine
 10
-352.9010323328
 20
219.8235294118
 30
0.0
 11
-352.9010323328
 21
229.8235294118
 31
0.0
  0
LINE
  5
150
330
1F
100
AcDbEntity
  8
0
  6
Continuous
 62
     7
370
    15
100
AcDbLine
 10
-352.9010323328
 20
229.8235294118
 30
0.0
 11
-512.9010323328
 21
229.8235294118
 31
0.0
  0
LINE
  5
151
330
1F
100
AcDbEntity
  8
0
  6
Continuous
 62
     7
370
    15
100
AcDbLine
 10
-512.9010323328
 20
259.8235294118
 30
0.0
 11
-512.9010323328
 21
249.8235294118
 31
0.0
  0
LINE
  5
152
330
1F
100
AcDbEntity
  8
0
  6
Continuous
 62
     7
370
    15
100
AcDbLine
 10
-512.9010323328
 20
249.8235294118
 30
0.0
 11
-352.9010323328
 21
249.8235294118
 31
0.0
  0
LINE
  5
153
330
1F
100
AcDbEntity
  8
0
  6
Continuous
 62
     7
370
    15
100
AcDbLine
 10
-352.9010323328
 20
249.8235294118
 30
0.0
 11
-352.9010323328
 21
259.8235294118
 31
0.0
  0
LINE
  5
154
330
1F
100
AcDbEntity
  8
0
  6
Continuous
 62
     7
370
    15
100
AcDbLine
 10
-352.9010323328
 20
259.8235294118
 30
0.0
 11
-512.9010323328
 21
259.8235294118
 31
0.0
  0
LINE
  5
155
330
1F
100
AcDbEntity
  8
0
  6
Continuous
 62
     7
370
    15
100
AcDbLine
 10
-512.9010323328
 20
289.8235294118
 30
0.0
 11
-512.9010323328
 21
279.8235294118
 31
0.0
  0
LINE
  5
156
330
1F
100
AcDbEntity
  8
0
  6
Continuous
 62
     7
370
    15
100
AcDbLine
 10
-512.9010323328
 20
279.8235294118
 30
0.0
 11
-352.9010323328
 21
279.8235294118
 31
0.0
  0
LINE
  5
157
330
1F
100
AcDbEntity
  8
0
  6
Continuous
 62
     7
370
    15
100
AcDbLine
 10
-352.9010323328
 20
279.8235294118
 30
0.0
 11
-352.9010323328
 21
289.8235294118
 31
0.0
  0
LINE
  5
158
330
1F
100
AcDbEntity
  8
0
  6
Continuous
 62
     7
370
    15
100
AcDbLine
 10
-352.9010323328
 20
289.8235294118
 30
0.0
 11
-512.9010323328
 21
289.8235294118
 31
0.0
  0
LINE
  5
159
330
1F
100
AcDbEntity
  8
0
  6
Continuous
 62
     7
370
    15
100
AcDbLine
 10
497.0989676672
 20
289.8235294118
 30
0.0
 11
497.0989676672
 21
279.8235294118
 31
0.0
  0
LINE
  5
15A
330
1F
100
AcDbEntity
  8
0
  6
Continuous
 62
     7
370
    15
100
AcDbLine
 10
497.0989676672
 20
279.8235294118
 30
0.0
 11
667.0989676672
 21
279.8235294118
 31
0.0
  0
LINE
  5
15B
330
1F
100
AcDbEntity
  8
0
  6
Continuous
 62
     7
370
    15
100
AcDbLine
 10
667.0989676672
 20
279.8235294118
 30
0.0
 11
667.0989676672
 21
289.8235294118
 31
0.0
  0
LINE
  5
15C
330
1F
100
AcDbEntity
  8
0
  6
Continuous
 62
     7
370
    15
100
AcDbLine
 10
667.0989676672
 20
289.8235294118
 30
0.0
 11
497.0989676672
 21
289.8235294118
 31
0.0
  0
LINE
  5
15D
330
1F
100
AcDbEntity
  8
0
  6
Continuous
 62
     7
370
    15
100
AcDbLine
 10
-512.9010323328
 20
319.8235294118
 30
0.0
 11
-512.9010323328
 21
309.8235294118
 31
0.0
  0
LINE
  5
15E
330
1F
100
AcDbEntity
  8
0
  6
Continuous
 62
     7
370
    15
100
AcDbLine
 10
-512.9010323328
 20
309.8235294118
 30
0.0
 11
-352.9010323328
 21
309.8235294118
 31
0.0
  0
LINE
  5
15F
330
1F
100
AcDbEntity
  8
0
  6
Continuous
 62
     7
370
    15
100
AcDbLine
 10
-352.9010323328
 20
309.8235294118
 30
0.0
 11
-352.9010323328
 21
319.8235294118
 31
0.0
  0
LINE
  5
160
330
1F
100
AcDbEntity
  8
0
  6
Continuous
 62
     7
370
    15
100
AcDbLine
 10
-352.9010323328
 20
319.8235294118
 30
0.0
 11
-512.9010323328
 21
319.8235294118
 31
0.0
  0
LINE
  5
161
330
1F
100
AcDbEntity
  8
0
  6
Continuous
 62
     7
370
    15
100
AcDbLine
 10
-174.7182475326
 20
-316.8815987934
 30
0.0
 11
-189.8039847121
 21
-316.8815987934
 31
0.0
  0
LINE
  5
162
330
1F
100
AcDbEntity
  8
0
  6
Continuous
 62
     7
370
    15
100
AcDbLine
 10
-196.9246778211
 20
-435.6536340498
 30
0.0
 11
-165.62740218
 21
-324.5933375754
 31
0.0
  0
LINE
  5
163
330
1F
100
AcDbEntity
  8
0
  6
Continuous
 62
     7
370
    15
100
AcDbLine
 10
-220.7916650005
 20
-442.9713423831
 30
0.0
 11
-210.9971938467
 21
-442.9713423831
 31
0.0
  0
LINE
  5
164
330
1F
100
AcDbEntity
  8
0
  6
Continuous
 62
     7
370
    15
100
AcDbLine
 10
-222.7336722121
 20
-450.1764705882
 30
0.0
 11
-220.7916650005
 21
-442.9713423831
 31
0.0
  0
LINE
  5
165
330
1F
100
AcDbEntity
  8
0
  6
Continuous
 62
     7
370
    15
100
AcDbLine
 10
-152.2303669236
 20
-450.1764705882
 30
0.0
 11
-222.7336722121
 21
-450.1764705882
 31
0.0
  0
LINE
  5
166
330
1F
100
AcDbEntity
  8
0
  6
Continuous
 62
     7
370
    15
100
AcDbLine
 10
-150.4853749364
 20
-442.9713423831
 30
0.0
 11
-152.2303669236
 21
-450.1764705882
 31
0.0
  0
LINE
  5
167
330
1F
100
AcDbEntity
  8
0
  6
Continuous
 62
     7
370
    15
100
AcDbLine
 10
-163.1506393595
 20
-442.9713423831
 30
0.0
 11
-150.4853749364
 21
-442.9713423831
 31
0.0
  0
LINE
  5
168
330
1F
100
AcDbEntity
  8
0
  6
Continuous
 62
     7
370
    15
100
AcDbLine
 10
-143.5335520198
 20
-325.5784136972
 30
0.0
 11
-173.7613164429
 21
-432.7828407805
 31
0.0
  0
LINE
  5
169
330
1F
100
AcDbEntity
  8
0
  6
Continuous
 62
     7
370
    15
100
AcDbLine
 10
-121.0738164429
 20
-316.8815987934
 30
0.0
 11
-131.4874783018
 21
-316.8815987934
 31
0.0
  0
LINE
  5
16A
330
1F
100
AcDbEntity
  8
0
  6
Continuous
 62
     7
370
    15
100
AcDbLine
 10
-119.5539847121
 20
-309.6764705882
 30
0.0
 11
-121.0738164429
 21
-316.8815987934
 31
0.0
  0
LINE
  5
16B
330
1F
100
AcDbEntity
  8
0
  6
Continuous
 62
     7
370
    15
100
AcDbLine
 10
-188.1715728531
 20
-309.6764705882
 30
0.0
 11
-119.5539847121
 21
-309.6764705882
 31
0.0
  0
LINE
  5
16C
330
1F
100
AcDbEntity
  8
0
  6
Continuous
 62
     7
370
    15
100
AcDbLine
 10
-189.8039847121
 20
-316.8815987934
 30
0.0
 11
-188.1715728531
 21
-309.6764705882
 31
0.0
  0
LINE
  5
16D
330
1F
100
AcDbEntity
  8
0
  6
Continuous
 62
     7
370
    15
100
AcDbLine
 10
748.3467386921
 20
105.5918294118
 30
0.0
 11
748.3467386921
 21
134.0552294118
 31
0.0
  0
LINE
  5
16E
330
1F
100
AcDbEntity
  8
0
  6
Continuous
 62
     7
370
    15
100
AcDbLine
 10
748.3467386921
 20
105.5918294118
 30
0.0
 11
746.7418386921
 21
105.5918294118
 31
0.0
  0
LINE
  5
16F
330
1F
100
AcDbEntity
  8
0
  6
Continuous
 62
     7
370
    15
100
AcDbLine
 10
746.7418386921
 20
105.5918294118
 30
0.0
 11
746.7418386921
 21
104.7235294118
 31
0.0
  0
LINE
  5
170
330
1F
100
AcDbEntity
  8
0
  6
Continuous
 62
     7
370
    15
100
AcDbLine
 10
746.7418386921
 20
104.7235294118
 30
0.0
 11
808.9056807418
 21
104.7235294118
 31
0.0
  0
LINE
  5
171
330
1F
100
AcDbEntity
  8
0
  6
Continuous
 62
     7
370
    15
100
AcDbLine
 10
808.9056807418
 20
-424.9764705882
 30
0.0
 11
746.7418386921
 21
-424.9764705882
 31
0.0
  0
LINE
  5
172
330
1F
100
AcDbEntity
  8
0
  6
Continuous
 62
     7
370
    15
100
AcDbLine
 10
746.7418386921
 20
-424.9764705882
 30
0.0
 11
746.7418386921
 21
-425.8447705882
 31
0.0
  0
LINE
  5
173
330
1F
100
AcDbEntity
  8
0
  6
Continuous
 62
     7
370
    15
100
AcDbLine
 10
746.7418386921
 20
-425.8447705882
 30
0.0
 11
748.3467386921
 21
-425.8447705882
 31
0.0
  0
LINE
  5
174
330
1F
100
AcDbEntity
  8
0
  6
Continuous
 62
     7
370
    15
100
AcDbLine
 10
748.3467386921
 20
-550.1764705882
 30
0.0
 11
748.3467386921
 21
-425.8447705882
 31
0.0
  0
LINE
  5
175
330
1F
100
AcDbEntity
  8
0
  6
Continuous
 62
     7
370
    15
100
AcDbLine
 10
687.7672676672
 20
-550.1764705882
 30
0.0
 11
748.3467386921
 21
-550.1764705882
 31
0.0
  0
LINE
  5
176
330
1F
100
AcDbEntity
  8
0
  6
Continuous
 62
     7
370
    15
100
AcDbLine
 10
687.7672676672
 20
-550.1764705882
 30
0.0
 11
687.7672676672
 21
-546.8349705882
 31
0.0
  0
LINE
  5
177
330
1F
100
AcDbEntity
  8
0
  6
Continuous
 62
     7
370
    15
100
AcDbLine
 10
687.7672676672
 20
-546.8349705882
 30
0.0
 11
686.8989676672
 21
-546.8349705882
 31
0.0
  0
LINE
  5
178
330
1F
100
AcDbEntity
  8
0
  6
Continuous
 62
     7
370
    15
100
AcDbLine
 10
686.8989676672
 20
-579.6876416131
 30
0.0
 11
686.8989676672
 21
-546.8349705882
 31
0.0
  0
LINE
  5
179
330
1F
100
AcDbEntity
  8
0
  6
Continuous
 62
     7
370
    15
100
AcDbLine
 10
-522.7010323328
 20
-579.6876416131
 30
0.0
 11
686.8989676672
 21
-579.6876416131
 31
0.0
  0
LINE
  5
17A
330
1F
100
AcDbEntity
  8
0
  6
Continuous
 62
     7
370
    15
100
AcDbLine
 10
-522.7010323328
 20
-546.8349705882
 30
0.0
 11
-522.7010323328
 21
-579.6876416131
 31
0.0
  0
LINE
  5
17B
330
1F
100
AcDbEntity
  8
0
  6
Continuous
 62
     7
370
    15
100
AcDbLine
 10
-522.7010323328
 20
-546.8349705882
 30
0.0
 11
-523.5693323328
 21
-546.8349705882
 31
0.0
  0
LINE
  5
17C
330
1F
100
AcDbEntity
  8
0
  6
Continuous
 62
     7
370
    15
100
AcDbLine
 10
-523.5693323328
 20
-546.8349705882
 30
0.0
 11
-523.5693323328
 21
-550.1764705882
 31
0.0
  0
LINE
  5
17D
330
1F
100
AcDbEntity
  8
0
  6
Continuous
 62
     7
370
    15
100
AcDbLine
 10
-552.9010323328
 20
-550.1764705882
 30
0.0
 11
-523.5693323328
 21
-550.1764705882
 31
0.0
  0
LINE
  5
17E
330
1F
100
AcDbEntity
  8
0
  6
Continuous
 62
     7
370
    15
100
AcDbLine
 10
-552.9010323328
 20
381.8713004366
 30
0.0
 11
-552.9010323328
 21
-550.1764705882
 31
0.0
  0
LINE
  5
17F
330
1F
100
AcDbEntity
  8
0
  6
Continuous
 62
     7
370
    15
100
AcDbLine
 10
-312.9010323328
 20
381.8713004366
 30
0.0
 11
-552.9010323328
 21
381.8713004366
 31
0.0
  0
LINE
  5
180
330
1F
100
AcDbEntity
  8
0
  6
Continuous
 62
     7
370
    15
100
AcDbLine
 10
-312.9010323328
 20
369.0869294118
 30
0.0
 11
-312.9010323328
 21
381.8713004366
 31
0.0
  0
LINE
  5
181
330
1F
100
AcDbEntity
  8
0
  6
Continuous
 62
     7
370
    15
100
AcDbLine
 10
-299.9416991639
 20
369.0869294118
 30
0.0
 11
-312.9010323328
 21
369.0869294118
 31
0.0
  0
LINE
  5
182
330
1F
100
AcDbEntity
  8
0
  6
Continuous
 62
     7
370
    15
100
AcDbLine
 10
-284.2571118876
 20
337.714071654
 30
0.0
 11
-299.9416991639
 21
369.0869294118
 31
0.0
  0
LINE
  5
183
330
1F
100
AcDbEntity
  8
0
  6
Continuous
 62
     7
370
    15
100
AcDbLine
 10
-284.2571118876
 20
337.714071654
 30
0.0
 11
-285.1947613079
 21
337.714071654
 31
0.0
  0
LINE
  5
184
330
1F
100
AcDbEntity
  8
0
  6
Continuous
 62
     7
370
    15
100
AcDbLine
 10
-285.1947613079
 20
337.714071654
 30
0.0
 11
-285.1947613079
 21
336.845771654
 31
0.0
  0
LINE
  5
185
330
1F
100
AcDbEntity
  8
0
  6
Continuous
 62
     7
370
    15
100
AcDbLine
 10
-285.1947613079
 20
336.845771654
 30
0.0
 11
-254.2786902831
 21
336.845771654
 31
0.0
  0
LINE
  5
186
330
1F
100
AcDbEntity
  8
0
  6
Continuous
 62
     7
370
    15
100
AcDbLine
 10
-254.2786902831
 20
336.845771654
 30
0.0
 11
-254.2786902831
 21
166.7601294118
 31
0.0
  0
LINE
  5
187
330
1F
100
AcDbEntity
  8
0
  6
Continuous
 62
     7
370
    15
100
AcDbLine
 10
-254.2786902831
 20
166.7601294118
 30
0.0
 11
-314.5059323328
 21
166.7601294118
 31
0.0
  0
LINE
  5
188
330
1F
100
AcDbEntity
  8
0
  6
Continuous
 62
     7
370
    15
100
AcDbLine
 10
-314.5059323328
 20
166.7601294118
 30
0.0
 11
-314.5059323328
 21
165.8918294118
 31
0.0
  0
LINE
  5
189
330
1F
100
AcDbEntity
  8
0
  6
Continuous
 62
     7
370
    15
100
AcDbLine
 10
-314.5059323328
 20
165.8918294118
 30
0.0
 11
-312.9010323328
 21
165.8918294118
 31
0.0
  0
LINE
  5
18A
330
1F
100
AcDbEntity
  8
0
  6
Continuous
 62
     7
370
    15
100
AcDbLine
 10
-312.9010323328
 20
164.8235294118
 30
0.0
 11
-312.9010323328
 21
165.8918294118
 31
0.0
  0
LINE
  5
18B
330
1F
100
AcDbEntity
  8
0
  6
Continuous
 62
     7
370
    15
100
AcDbLine
 10
-252.7693323328
 20
164.8235294118
 30
0.0
 11
-312.9010323328
 21
164.8235294118
 31
0.0
  0
LINE
  5
18C
330
1F
100
AcDbEntity
  8
0
  6
Continuous
 62
     7
370
    15
100
AcDbLine
 10
-252.7693323328
 20
164.8235294118
 30
0.0
 11
-252.7693323328
 21
163.2186294118
 31
0.0
  0
LINE
  5
18D
330
1F
100
AcDbEntity
  8
0
  6
Continuous
 62
     7
370
    15
100
AcDbLine
 10
-252.7693323328
 20
163.2186294118
 30
0.0
 11
-251.9010323328
 21
163.2186294118
 31
0.0
  0
LINE
  5
18E
330
1F
100
AcDbEntity
  8
0
  6
Continuous
 62
     7
370
    15
100
AcDbLine
 10
-251.9010323328
 20
195.8713004366
 30
0.0
 11
-251.9010323328
 21
163.2186294118
 31
0.0
  0
LINE
  5
18F
330
1F
100
AcDbEntity
  8
0
  6
Continuous
 62
     7
370
    15
100
AcDbLine
 10
386.0989676672
 20
195.8713004366
 30
0.0
 11
-251.9010323328
 21
195.8713004366
 31
0.0
  0
LINE
  5
190
330
1F
100
AcDbEntity
  8
0
  6
Continuous
 62
     7
370
    15
100
AcDbLine
 10
386.0989676672
 20
163.2186294118
 30
0.0
 11
386.0989676672
 21
195.8713004366
 31
0.0
  0
LINE
  5
191
330
1F
100
AcDbEntity
  8
0
  6
Continuous
 62
     7
370
    15
100
AcDbLine
 10
386.0989676672
 20
163.2186294118
 30
0.0
 11
386.9672676672
 21
163.2186294118
 31
0.0
  0
LINE
  5
192
330
1F
100
AcDbEntity
  8
0
  6
Continuous
 62
     7
370
    15
100
AcDbLine
 10
386.9672676672
 20
163.2186294118
 30
0.0
 11
386.9672676672
 21
164.8235294118
 31
0.0
  0
LINE
  5
193
330
1F
100
AcDbEntity
  8
0
  6
Continuous
 62
     7
370
    15
100
AcDbLine
 10
447.0989676672
 20
164.8235294118
 30
0.0
 11
386.9672676672
 21
164.8235294118
 31
0.0
  0
LINE
  5
194
330
1F
100
AcDbEntity
  8
0
  6
Continuous
 62
     7
370
    15
100
AcDbLine
 10
447.0989676672
 20
165.8918294118
 30
0.0
 11
447.0989676672
 21
164.8235294118
 31
0.0
  0
LINE
  5
195
330
1F
100
AcDbEntity
  8
0
  6
Continuous
 62
     7
370
    15
100
AcDbLine
 10
447.0989676672
 20
165.8918294118
 30
0.0
 11
448.7038676672
 21
165.8918294118
 31
0.0
  0
LINE
  5
196
330
1F
100
AcDbEntity
  8
0
  6
Continuous
 62
     7
370
    15
100
AcDbLine
 10
448.7038676672
 20
165.8918294118
 30
0.0
 11
448.7038676672
 21
166.7601294118
 31
0.0
  0
LINE
  5
197
330
1F
100
AcDbEntity
  8
0
  6
Continuous
 62
     7
370
    15
100
AcDbLine
 10
448.7038676672
 20
166.7601294118
 30
0.0
 11
388.4766256174
 21
166.7601294118
 31
0.0
  0
LINE
  5
198
330
1F
100
AcDbEntity
  8
0
  6
Continuous
 62
     7
370
    15
100
AcDbLine
 10
388.4766256174
 20
166.7601294118
 30
0.0
 11
388.4766256174
 21
337.3424338754
 31
0.0
  0
LINE
  5
199
330
1F
100
AcDbEntity
  8
0
  6
Continuous
 62
     7
370
    15
100
AcDbLine
 10
388.4766256174
 20
337.3424338754
 30
0.0
 11
419.3926966423
 21
337.3424338754
 31
0.0
  0
LINE
  5
19A
330
1F
100
AcDbEntity
  8
0
  6
Continuous
 62
     7
370
    15
100
AcDbLine
 10
419.3926966423
 20
337.3424338754
 30
0.0
 11
419.3926966423
 21
338.2031050032
 31
0.0
  0
LINE
  5
19B
330
1F
100
AcDbEntity
  8
0
  6
Continuous
 62
     7
370
    15
100
AcDbLine
 10
434.0818267021
 20
369.0869294118
 30
0.0
 11
419.3926966423
 21
338.2031050032
 31
0.0
  0
LINE
  5
19C
330
1F
100
AcDbEntity
  8
0
  6
Continuous
 62
     7
370
    15
100
AcDbLine
 10
447.0989676672
 20
369.0869294118
 30
0.0
 11
434.0818267021
 21
369.0869294118
 31
0.0
  0
LINE
  5
19D
330
1F
100
AcDbEntity
  8
0
  6
Continuous
 62
     7
370
    15
100
AcDbLine
 10
447.0989676672
 20
381.8713004366
 30
0.0
 11
447.0989676672
 21
369.0869294118
 31
0.0
  0
LINE
  5
19E
330
1F
100
AcDbEntity
  8
0
  6
Continuous
 62
     7
370
    15
100
AcDbLine
 10
716.3623676672
 20
381.8713004366
 30
0.0
 11
447.0989676672
 21
381.8713004366
 31
0.0
  0
LINE
  5
19F
330
1F
100
AcDbEntity
  8
0
  6
Continuous
 62
     7
370
    15
100
AcDbLine
 10
716.3623676672
 20
369.0869294118
 30
0.0
 11
716.3623676672
 21
381.8713004366
 31
0.0
  0
LINE
  5
1A0
330
1F
100
AcDbEntity
  8
0
  6
Continuous
 62
     7
370
    15
100
AcDbLine
 10
716.3623676672
 20
369.0869294118
 30
0.0
 11
718.8833386921
 21
369.0869294118
 31
0.0
  0
LINE
  5
1A1
330
1F
100
AcDbEntity
  8
0
  6
Continuous
 62
     7
370
    15
100
AcDbLine
 10
718.8833386921
 20
369.0869294118
 30
0.0
 11
718.8833386921
 21
369.8235294118
 31
0.0
  0
LINE
  5
1A2
330
1F
100
AcDbEntity
  8
0
  6
Continuous
 62
     7
370
    15
100
AcDbLine
 10
748.3467386921
 20
369.8235294118
 30
0.0
 11
718.8833386921
 21
369.8235294118
 31
0.0
  0
LINE
  5
1A3
330
1F
100
AcDbEntity
  8
0
  6
Continuous
 62
     7
370
    15
100
AcDbLine
 10
748.3467386921
 20
340.4918294118
 30
0.0
 11
748.3467386921
 21
369.8235294118
 31
0.0
  0
LINE
  5
1A4
330
1F
100
AcDbEntity
  8
0
  6
Continuous
 62
     7
370
    15
100
AcDbLine
 10
748.3467386921
 20
340.4918294118
 30
0.0
 11
746.7418386921
 21
340.4918294118
 31
0.0
  0
LINE
  5
1A5
330
1F
100
AcDbEntity
  8
0
  6
Continuous
 62
     7
370
    15
100
AcDbLine
 10
746.7418386921
 20
340.4918294118
 30
0.0
 11
746.7418386921
 21
339.6235294118
 31
0.0
  0
LINE
  5
1A6
330
1F
100
AcDbEntity
  8
0
  6
Continuous
 62
     7
370
    15
100
AcDbLine
 10
746.7418386921
 20
339.6235294118
 30
0.0
 11
810.6422807418
 21
339.6235294118
 31
0.0
  0
LINE
  5
1A7
330
1F
100
AcDbEntity
  8
0
  6
Continuous
 62
     7
370
    15
100
AcDbLine
 10
810.6422807418
 20
339.6235294118
 30
0.0
 11
810.6422807418
 21
134.9235294118
 31
0.0
  0
LINE
  5
1A8
330
1F
100
AcDbEntity
  8
0
  6
Continuous
 62
     7
370
    15
100
AcDbLine
 10
810.6422807418
 20
134.9235294118
 30
0.0
 11
746.7418386921
 21
134.9235294118
 31
0.0
  0
LINE
  5
1A9
330
1F
100
AcDbEntity
  8
0
  6
Continuous
 62
     7
370
    15
100
AcDbLine
 10
746.7418386921
 20
134.9235294118
 30
0.0
 11
746.7418386921
 21
134.0552294118
 31
0.0
  0
LINE
  5
1AA
330
1F
100
AcDbEntity
  8
0
  6
Continuous
 62
     7
370
    15
100
AcDbLine
 10
746.7418386921
 20
134.0552294118
 30
0.0
 11
748.3467386921
 21
134.0552294118
 31
0.0
  0
LINE
  5
1AB
330
1F
100
AcDbEntity
  8
0
  6
Continuous
 62
     7
370
    15
100
AcDbLine
 10
808.9056807418
 20
104.7235294118
 30
0.0
 11
808.9056807418
 21
-424.9764705882
 31
0.0
  0
ENDSEC
  0
SECTION
  2
OBJECTS
  0
DICTIONARY
  5
C
330
0
100
AcDbDictionary
281
     1
  3
ACAD_GROUP
350
D
  3
ACAD_LAYOUT
350
1A
  3
ACAD_MLINESTYLE
350
17
  3
ACAD_PLOTSETTINGS
350
19
  3
ACAD_PLOTSTYLENAME
350
E
  3
ACAD_SCALELIST
350
47
  0
DICTIONARY
  5
D
102
{ACAD_REACTORS
330
C
102
}
330
C
100
AcDbDictionary
281
     1
  0
DICTIONARY
  5
1A
102
{ACAD_REACTORS
330
C
102
}
330
C
100
AcDbDictionary
281
     1
  3
Layout1
350
1E
  3
Layout2
350
26
  3
Model
350
22
  0
DICTIONARY
  5
17
102
{ACAD_REACTORS
330
C
102
}
330
C
100
AcDbDictionary
281
     1
  3
Standard
350
18
  0
DICTIONARY
  5
19
102
{ACAD_REACTORS
330
C
102
}
330
C
100
AcDbDictionary
281
     1
  0
ACDBDICTIONARYWDFLT
  5
E
102
{ACAD_REACTORS
330
C
102
}
330
C
100
AcDbDictionary
281
     1
  3
Normal
350
F
100
AcDbDictionaryWithDefault
340
F
  0
DICTIONARY
  5
47
102
{ACAD_REACTORS
330
C
102
}
330
C
100
AcDbDictionary
281
     1
  3
A0
350
48
  3
A1
350
49
  3
A2
350
4A
  3
A3
350
4B
  3
A4
350
4C
  3
A5
350
4D
  3
A6
350
4E
  3
A7
350
4F
  3
A8
350
50
  3
A9
350
51
  3
B0
350
52
  3
B1
350
53
  3
B2
350
54
  3
B3
350
55
  3
B4
350
56
  3
B5
350
57
  3
B6
350
58
  3
B7
350
59
  3
B8
350
5A
  3
B9
350
5B
  3
C0
350
5C
  3
C1
350
5D
  3
C2
350
5E
  3
C3
350
5F
  3
C4
350
60
  3
C5
350
61
  3
C6
350
62
  3
C7
350
63
  3
C8
350
64
  3
C9
350
65
  3
D0
350
66
  3
D1
350
67
  3
D2
350
68
  0
LAYOUT
  5
1E
102
{ACAD_REACTORS
330
1A
102
}
330
1A
100
AcDbPlotSettings
  1

  2
none_device
  4

  6

 40
0.0
 41
0.0
 42
0.0
 43
0.0
 44
0.0
 45
0.0
 46
0.0
 47
0.0
 48
0.0
 49
0.0
140
0.0
141
0.0
142
1.0
143
1.0
 70
   688
 72
     1
 73
     0
 74
     5
  7

 75
    16
147
1.0
148
0.0
149
0.0
100
AcDbLayout
  1
Layout1
 70
     1
 71
     1
 10
0.0
 20
0.0
 11
420.0
 21
297.0
 12
0.0
 22
0.0
 32
0.0
 14
1.0000000000E+20
 24
1.0000000000E+20
 34
1.0000000000E+20
 15
-1.0000000000E+20
 25
-1.0000000000E+20
 35
-1.0000000000E+20
146
0.0
 13
0.0
 23
0.0
 33
0.0
 16
1.0
 26
0.0
 36
0.0
 17
0.0
 27
1.0
 37
0.0
 76
     0
330
1B
  0
LAYOUT
  5
26
102
{ACAD_REACTORS
330
1A
102
}
330
1A
100
AcDbPlotSettings
  1

  2
none_device
  4

  6

 40
0.0
 41
0.0
 42
0.0
 43
0.0
 44
0.0
 45
0.0
 46
0.0
 47
0.0
 48
0.0
 49
0.0
140
0.0
141
0.0
142
1.0
143
1.0
 70
   688
 72
     1
 73
     0
 74
     5
  7

 75
    16
147
1.0
148
0.0
149
0.0
100
AcDbLayout
  1
Layout2
 70
     1
 71
     2
 10
0.0
 20
0.0
 11
0.0
 21
0.0
 12
0.0
 22
0.0
 32
0.0
 14
0.0
 24
0.0
 34
0.0
 15
0.0
 25
0.0
 35
0.0
146
0.0
 13
0.0
 23
0.0
 33
0.0
 16
1.0
 26
0.0
 36
0.0
 17
0.0
 27
1.0
 37
0.0
 76
     0
330
23
  0
LAYOUT
  5
22
102
{ACAD_REACTORS
330
1A
102
}
330
1A
100
AcDbPlotSettings
  1

  2
none_device
  4
ANSI_A_(11.00_x_8.50_Inches)
  6

 40
6.35
 41
19.05
 42
6.35000508
 43
19.05000254
 44
279.4
 45
215.9
 46
107.2075291299
 47
108.9643363799
 48
0.0
 49
0.0
140
0.0
141
0.0
142
0.007986545
143
1.0
 70
  1696
 72
     0
 73
     0
 74
     0
  7

 75
     0
147
0.0179189148
148
-1300.4909072572
149
0.0
100
AcDbLayout
  1
Model
 70
     1
 71
     0
 10
0.0
 20
0.0
 11
420.0
 21
297.0
 12
0.0
 22
0.0
 32
0.0
 14
-552.9010323328
 24
-579.6876416131
 34
0.0
 15
810.6422807418
 25
381.8713004366
 35
0.0
146
0.0
 13
0.0
 23
0.0
 33
0.0
 16
1.0
 26
0.0
 36
0.0
 17
0.0
 27
1.0
 37
0.0
 76
     0
330
1F
331
29
  0
MLINESTYLE
  5
18
102
{ACAD_REACTORS
330
17
102
}
330
17
100
AcDbMlineStyle
  2
Standard
 70
     0
  3

 62
   256
 51
90.0
 52
90.0
 71
     2
 49
0.5
 62
   256
  6
BYLAYER
 49
-0.5
 62
   256
  6
BYLAYER
  0
ACDBPLACEHOLDER
  5
F
102
{ACAD_REACTORS
330
E
102
}
330
E
  0
SCALE
  5
48
102
{ACAD_REACTORS
330
47
102
}
330
47
100
AcDbScale
 70
     0
300
1:1
140
1.0
141
1.0
290
     1
  0
SCALE
  5
49
102
{ACAD_REACTORS
330
47
102
}
330
47
100
AcDbScale
 70
     0
300
1:2
140
1.0
141
2.0
290
     0
  0
SCALE
  5
4A
102
{ACAD_REACTORS
330
47
102
}
330
47
100
AcDbScale
 70
     0
300
1:4
140
1.0
141
4.0
290
     0
  0
SCALE
  5
4B
102
{ACAD_REACTORS
330
47
102
}
330
47
100
AcDbScale
 70
     0
300
1:5
140
1.0
141
5.0
290
     0
  0
SCALE
  5
4C
102
{ACAD_REACTORS
330
47
102
}
330
47
100
AcDbScale
 70
     0
300
1:8
140
1.0
141
8.0
290
     0
  0
SCALE
  5
4D
102
{ACAD_REACTORS
330
47
102
}
330
47
100
AcDbScale
 70
     0
300
1:10
140
1.0
141
10.0
290
     0
  0
SCALE
  5
4E
102
{ACAD_REACTORS
330
47
102
}
330
47
100
AcDbScale
 70
     0
300
1:16
140
1.0
141
16.0
290
     0
  0
SCALE
  5
4F
102
{ACAD_REACTORS
330
47
102
}
330
47
100
AcDbScale
 70
     0
300
1:20
140
1.0
141
20.0
290
     0
  0
SCALE
  5
50
102
{ACAD_REACTORS
330
47
102
}
330
47
100
AcDbScale
 70
     0
300
1:30
140
1.0
141
30.0
290
     0
  0
SCALE
  5
51
102
{ACAD_REACTORS
330
47
102
}
330
47
100
AcDbScale
 70
     0
300
1:40
140
1.0
141
40.0
290
     0
  0
SCALE
  5
52
102
{ACAD_REACTORS
330
47
102
}
330
47
100
AcDbScale
 70
     0
300
1:50
140
1.0
141
50.0
290
     0
  0
SCALE
  5
53
102
{ACAD_REACTORS
330
47
102
}
330
47
100
AcDbScale
 70
     0
300
1:100
140
1.0
141
100.0
290
     0
  0
SCALE
  5
54
102
{ACAD_REACTORS
330
47
102
}
330
47
100
AcDbScale
 70
     0
300
2:1
140
2.0
141
1.0
290
     0
  0
SCALE
  5
55
102
{ACAD_REACTORS
330
47
102
}
330
47
100
AcDbScale
 70
     0
300
4:1
140
4.0
141
1.0
290
     0
  0
SCALE
  5
56
102
{ACAD_REACTORS
330
47
102
}
330
47
100
AcDbScale
 70
     0
300
8:1
140
8.0
141
1.0
290
     0
  0
SCALE
  5
57
102
{ACAD_REACTORS
330
47
102
}
330
47
100
AcDbScale
 70
     0
300
10:1
140
10.0
141
1.0
290
     0
  0
SCALE
  5
58
102
{ACAD_REACTORS
330
47
102
}
330
47
100
AcDbScale
 70
     0
300
100:1
140
100.0
141
1.0
290
     0
  0
SCALE
  5
59
102
{ACAD_REACTORS
330
47
102
}
330
47
100
AcDbScale
 70
     0
300
1/128" = 1'-0"
140
0.0078125
141
12.0
290
     0
  0
SCALE
  5
5A
102
{ACAD_REACTORS
330
47
102
}
330
47
100
AcDbScale
 70
     0
300
1/64" = 1'-0"
140
0.015625
141
12.0
290
     0
  0
SCALE
  5
5B
102
{ACAD_REACTORS
330
47
102
}
330
47
100
AcDbScale
 70
     0
300
1/32" = 1'-0"
140
0.03125
141
12.0
290
     0
  0
SCALE
  5
5C
102
{ACAD_REACTORS
330
47
102
}
330
47
100
AcDbScale
 70
     0
300
1/16" = 1'-0"
140
0.0625
141
12.0
290
     0
  0
SCALE
  5
5D
102
{ACAD_REACTORS
330
47
102
}
330
47
100
AcDbScale
 70
     0
300
3/32" = 1'-0"
140
0.09375
141
12.0
290
     0
  0
SCALE
  5
5E
102
{ACAD_REACTORS
330
47
102
}
330
47
100
AcDbScale
 70
     0
300
1/8" = 1'-0"
140
0.125
141
12.0
290
     0
  0
SCALE
  5
5F
102
{ACAD_REACTORS
330
47
102
}
330
47
100
AcDbScale
 70
     0
300
3/16" = 1'-0"
140
0.1875
141
12.0
290
     0
  0
SCALE
  5
60
102
{ACAD_REACTORS
330
47
102
}
330
47
100
AcDbScale
 70
     0
300
1/4" = 1'-0"
140
0.25
141
12.0
290
     0
  0
SCALE
  5
61
102
{ACAD_REACTORS
330
47
102
}
330
47
100
AcDbScale
 70
     0
300
3/8" = 1'-0"
140
0.375
141
12.0
290
     0
  0
SCALE
  5
62
102
{ACAD_REACTORS
330
47
102
}
330
47
100
AcDbScale
 70
     0
300
1/2" = 1'-0"
140
0.5
141
12.0
290
     0
  0
SCALE
  5
63
102
{ACAD_REACTORS
330
47
102
}
330
47
100
AcDbScale
 70
     0
300
3/4" = 1'-0"
140
0.75
141
12.0
290
     0
  0
SCALE
  5
64
102
{ACAD_REACTORS
330
47
102
}
330
47
100
AcDbScale
 70
     0
300
1" = 1'-0"
140
1.0
141
12.0
290
     0
  0
SCALE
  5
65
102
{ACAD_REACTORS
330
47
102
}
330
47
100
AcDbScale
 70
     0
300
1-1/2" = 1'-0"
140
1.5
141
12.0
290
     0
  0
SCALE
  5
66
102
{ACAD_REACTORS
330
47
102
}
330
47
100
AcDbScale
 70
     0
300
3" = 1'-0"
140
3.0
141
12.0
290
     0
  0
SCALE
  5
67
102
{ACAD_REACTORS
330
47
102
}
330
47
100
AcDbScale
 70
     0
300
6" = 1'-0"
140
6.0
141
12.0
290
     0
  0
SCALE
  5
68
102
{ACAD_REACTORS
330
47
102
}
330
47
100
AcDbScale
 70
     0
300
1'-0" = 1'-0"
140
12.0
141
12.0
290
     0
  0
ENDSEC
  0
EOF
